<?xml version="1.0" encoding="utf-8" standalone="no"?>
<!DOCTYPE svg PUBLIC "-//W3C//DTD SVG 1.1//EN"
  "http://www.w3.org/Graphics/SVG/1.1/DTD/svg11.dtd">
<!-- Created with matplotlib (http://matplotlib.org/) -->
<svg height="634.19475pt" version="1.1" viewBox="0 0 565.654205 634.19475" width="565.654205pt" xmlns="http://www.w3.org/2000/svg" xmlns:xlink="http://www.w3.org/1999/xlink">
 <defs>
  <style type="text/css">
*{stroke-linecap:butt;stroke-linejoin:round;}
  </style>
 </defs>
 <g id="figure_1">
  <g id="patch_1">
   <path d="M 0 634.19475 
L 565.654205 634.19475 
L 565.654205 0 
L 0 0 
z
" style="fill:#ffffff;"/>
  </g>
  <g id="axes_1">
   <g id="patch_2">
    <path d="M 194.109375 162.805375 
L 308.457784 162.805375 
L 308.457784 25.965375 
L 194.109375 25.965375 
z
" style="fill:#ffffff;"/>
   </g>
   <g id="matplotlib.axis_1">
    <g id="xtick_1">
     <g id="line2d_1">
      <defs>
       <path d="M 0 0 
L 0 3.5 
" id="ma109a7a49a" style="stroke:#000000;stroke-width:0.8;"/>
      </defs>
      <g>
       <use style="stroke:#000000;stroke-width:0.8;" x="194.109375" xlink:href="#ma109a7a49a" y="162.805375"/>
      </g>
     </g>
     <g id="text_1">
      <!-- −1.0 -->
      <defs>
       <path d="M 10.59375 35.5 
L 73.1875 35.5 
L 73.1875 27.203125 
L 10.59375 27.203125 
z
" id="DejaVuSans-2212"/>
       <path d="M 12.40625 8.296875 
L 28.515625 8.296875 
L 28.515625 63.921875 
L 10.984375 60.40625 
L 10.984375 69.390625 
L 28.421875 72.90625 
L 38.28125 72.90625 
L 38.28125 8.296875 
L 54.390625 8.296875 
L 54.390625 0 
L 12.40625 0 
z
" id="DejaVuSans-31"/>
       <path d="M 10.6875 12.40625 
L 21 12.40625 
L 21 0 
L 10.6875 0 
z
" id="DejaVuSans-2e"/>
       <path d="M 31.78125 66.40625 
Q 24.171875 66.40625 20.328125 58.90625 
Q 16.5 51.421875 16.5 36.375 
Q 16.5 21.390625 20.328125 13.890625 
Q 24.171875 6.390625 31.78125 6.390625 
Q 39.453125 6.390625 43.28125 13.890625 
Q 47.125 21.390625 47.125 36.375 
Q 47.125 51.421875 43.28125 58.90625 
Q 39.453125 66.40625 31.78125 66.40625 
z
M 31.78125 74.21875 
Q 44.046875 74.21875 50.515625 64.515625 
Q 56.984375 54.828125 56.984375 36.375 
Q 56.984375 17.96875 50.515625 8.265625 
Q 44.046875 -1.421875 31.78125 -1.421875 
Q 19.53125 -1.421875 13.0625 8.265625 
Q 6.59375 17.96875 6.59375 36.375 
Q 6.59375 54.828125 13.0625 64.515625 
Q 19.53125 74.21875 31.78125 74.21875 
z
" id="DejaVuSans-30"/>
      </defs>
      <g transform="translate(177.111406 180.443187)scale(0.14 -0.14)">
       <use xlink:href="#DejaVuSans-2212"/>
       <use x="83.789062" xlink:href="#DejaVuSans-31"/>
       <use x="147.412109" xlink:href="#DejaVuSans-2e"/>
       <use x="179.199219" xlink:href="#DejaVuSans-30"/>
      </g>
     </g>
    </g>
    <g id="xtick_2">
     <g id="line2d_2">
      <g>
       <use style="stroke:#000000;stroke-width:0.8;" x="222.696477" xlink:href="#ma109a7a49a" y="162.805375"/>
      </g>
     </g>
     <g id="text_2">
      <!-- −0.5 -->
      <defs>
       <path d="M 10.796875 72.90625 
L 49.515625 72.90625 
L 49.515625 64.59375 
L 19.828125 64.59375 
L 19.828125 46.734375 
Q 21.96875 47.46875 24.109375 47.828125 
Q 26.265625 48.1875 28.421875 48.1875 
Q 40.625 48.1875 47.75 41.5 
Q 54.890625 34.8125 54.890625 23.390625 
Q 54.890625 11.625 47.5625 5.09375 
Q 40.234375 -1.421875 26.90625 -1.421875 
Q 22.3125 -1.421875 17.546875 -0.640625 
Q 12.796875 0.140625 7.71875 1.703125 
L 7.71875 11.625 
Q 12.109375 9.234375 16.796875 8.0625 
Q 21.484375 6.890625 26.703125 6.890625 
Q 35.15625 6.890625 40.078125 11.328125 
Q 45.015625 15.765625 45.015625 23.390625 
Q 45.015625 31 40.078125 35.4375 
Q 35.15625 39.890625 26.703125 39.890625 
Q 22.75 39.890625 18.8125 39.015625 
Q 14.890625 38.140625 10.796875 36.28125 
z
" id="DejaVuSans-35"/>
      </defs>
      <g transform="translate(205.698509 180.443187)scale(0.14 -0.14)">
       <use xlink:href="#DejaVuSans-2212"/>
       <use x="83.789062" xlink:href="#DejaVuSans-30"/>
       <use x="147.412109" xlink:href="#DejaVuSans-2e"/>
       <use x="179.199219" xlink:href="#DejaVuSans-35"/>
      </g>
     </g>
    </g>
    <g id="xtick_3">
     <g id="line2d_3">
      <g>
       <use style="stroke:#000000;stroke-width:0.8;" x="251.28358" xlink:href="#ma109a7a49a" y="162.805375"/>
      </g>
     </g>
     <g id="text_3">
      <!-- 0.0 -->
      <g transform="translate(240.151392 180.443187)scale(0.14 -0.14)">
       <use xlink:href="#DejaVuSans-30"/>
       <use x="63.623047" xlink:href="#DejaVuSans-2e"/>
       <use x="95.410156" xlink:href="#DejaVuSans-30"/>
      </g>
     </g>
    </g>
    <g id="xtick_4">
     <g id="line2d_4">
      <g>
       <use style="stroke:#000000;stroke-width:0.8;" x="279.870682" xlink:href="#ma109a7a49a" y="162.805375"/>
      </g>
     </g>
     <g id="text_4">
      <!-- 0.5 -->
      <g transform="translate(268.738494 180.443187)scale(0.14 -0.14)">
       <use xlink:href="#DejaVuSans-30"/>
       <use x="63.623047" xlink:href="#DejaVuSans-2e"/>
       <use x="95.410156" xlink:href="#DejaVuSans-35"/>
      </g>
     </g>
    </g>
    <g id="xtick_5">
     <g id="line2d_5">
      <g>
       <use style="stroke:#000000;stroke-width:0.8;" x="308.457784" xlink:href="#ma109a7a49a" y="162.805375"/>
      </g>
     </g>
     <g id="text_5">
      <!-- 1.0 -->
      <g transform="translate(297.325597 180.443187)scale(0.14 -0.14)">
       <use xlink:href="#DejaVuSans-31"/>
       <use x="63.623047" xlink:href="#DejaVuSans-2e"/>
       <use x="95.410156" xlink:href="#DejaVuSans-30"/>
      </g>
     </g>
    </g>
    <g id="text_6">
     <!-- Speed in preferred direction -->
     <defs>
      <path d="M 53.515625 70.515625 
L 53.515625 60.890625 
Q 47.90625 63.578125 42.921875 64.890625 
Q 37.9375 66.21875 33.296875 66.21875 
Q 25.25 66.21875 20.875 63.09375 
Q 16.5 59.96875 16.5 54.203125 
Q 16.5 49.359375 19.40625 46.890625 
Q 22.3125 44.4375 30.421875 42.921875 
L 36.375 41.703125 
Q 47.40625 39.59375 52.65625 34.296875 
Q 57.90625 29 57.90625 20.125 
Q 57.90625 9.515625 50.796875 4.046875 
Q 43.703125 -1.421875 29.984375 -1.421875 
Q 24.8125 -1.421875 18.96875 -0.25 
Q 13.140625 0.921875 6.890625 3.21875 
L 6.890625 13.375 
Q 12.890625 10.015625 18.65625 8.296875 
Q 24.421875 6.59375 29.984375 6.59375 
Q 38.421875 6.59375 43.015625 9.90625 
Q 47.609375 13.234375 47.609375 19.390625 
Q 47.609375 24.75 44.3125 27.78125 
Q 41.015625 30.8125 33.5 32.328125 
L 27.484375 33.5 
Q 16.453125 35.6875 11.515625 40.375 
Q 6.59375 45.0625 6.59375 53.421875 
Q 6.59375 63.09375 13.40625 68.65625 
Q 20.21875 74.21875 32.171875 74.21875 
Q 37.3125 74.21875 42.625 73.28125 
Q 47.953125 72.359375 53.515625 70.515625 
z
" id="DejaVuSans-53"/>
      <path d="M 18.109375 8.203125 
L 18.109375 -20.796875 
L 9.078125 -20.796875 
L 9.078125 54.6875 
L 18.109375 54.6875 
L 18.109375 46.390625 
Q 20.953125 51.265625 25.265625 53.625 
Q 29.59375 56 35.59375 56 
Q 45.5625 56 51.78125 48.09375 
Q 58.015625 40.1875 58.015625 27.296875 
Q 58.015625 14.40625 51.78125 6.484375 
Q 45.5625 -1.421875 35.59375 -1.421875 
Q 29.59375 -1.421875 25.265625 0.953125 
Q 20.953125 3.328125 18.109375 8.203125 
z
M 48.6875 27.296875 
Q 48.6875 37.203125 44.609375 42.84375 
Q 40.53125 48.484375 33.40625 48.484375 
Q 26.265625 48.484375 22.1875 42.84375 
Q 18.109375 37.203125 18.109375 27.296875 
Q 18.109375 17.390625 22.1875 11.75 
Q 26.265625 6.109375 33.40625 6.109375 
Q 40.53125 6.109375 44.609375 11.75 
Q 48.6875 17.390625 48.6875 27.296875 
z
" id="DejaVuSans-70"/>
      <path d="M 56.203125 29.59375 
L 56.203125 25.203125 
L 14.890625 25.203125 
Q 15.484375 15.921875 20.484375 11.0625 
Q 25.484375 6.203125 34.421875 6.203125 
Q 39.59375 6.203125 44.453125 7.46875 
Q 49.3125 8.734375 54.109375 11.28125 
L 54.109375 2.78125 
Q 49.265625 0.734375 44.1875 -0.34375 
Q 39.109375 -1.421875 33.890625 -1.421875 
Q 20.796875 -1.421875 13.15625 6.1875 
Q 5.515625 13.8125 5.515625 26.8125 
Q 5.515625 40.234375 12.765625 48.109375 
Q 20.015625 56 32.328125 56 
Q 43.359375 56 49.78125 48.890625 
Q 56.203125 41.796875 56.203125 29.59375 
z
M 47.21875 32.234375 
Q 47.125 39.59375 43.09375 43.984375 
Q 39.0625 48.390625 32.421875 48.390625 
Q 24.90625 48.390625 20.390625 44.140625 
Q 15.875 39.890625 15.1875 32.171875 
z
" id="DejaVuSans-65"/>
      <path d="M 45.40625 46.390625 
L 45.40625 75.984375 
L 54.390625 75.984375 
L 54.390625 0 
L 45.40625 0 
L 45.40625 8.203125 
Q 42.578125 3.328125 38.25 0.953125 
Q 33.9375 -1.421875 27.875 -1.421875 
Q 17.96875 -1.421875 11.734375 6.484375 
Q 5.515625 14.40625 5.515625 27.296875 
Q 5.515625 40.1875 11.734375 48.09375 
Q 17.96875 56 27.875 56 
Q 33.9375 56 38.25 53.625 
Q 42.578125 51.265625 45.40625 46.390625 
z
M 14.796875 27.296875 
Q 14.796875 17.390625 18.875 11.75 
Q 22.953125 6.109375 30.078125 6.109375 
Q 37.203125 6.109375 41.296875 11.75 
Q 45.40625 17.390625 45.40625 27.296875 
Q 45.40625 37.203125 41.296875 42.84375 
Q 37.203125 48.484375 30.078125 48.484375 
Q 22.953125 48.484375 18.875 42.84375 
Q 14.796875 37.203125 14.796875 27.296875 
z
" id="DejaVuSans-64"/>
      <path id="DejaVuSans-20"/>
      <path d="M 9.421875 54.6875 
L 18.40625 54.6875 
L 18.40625 0 
L 9.421875 0 
z
M 9.421875 75.984375 
L 18.40625 75.984375 
L 18.40625 64.59375 
L 9.421875 64.59375 
z
" id="DejaVuSans-69"/>
      <path d="M 54.890625 33.015625 
L 54.890625 0 
L 45.90625 0 
L 45.90625 32.71875 
Q 45.90625 40.484375 42.875 44.328125 
Q 39.84375 48.1875 33.796875 48.1875 
Q 26.515625 48.1875 22.3125 43.546875 
Q 18.109375 38.921875 18.109375 30.90625 
L 18.109375 0 
L 9.078125 0 
L 9.078125 54.6875 
L 18.109375 54.6875 
L 18.109375 46.1875 
Q 21.34375 51.125 25.703125 53.5625 
Q 30.078125 56 35.796875 56 
Q 45.21875 56 50.046875 50.171875 
Q 54.890625 44.34375 54.890625 33.015625 
z
" id="DejaVuSans-6e"/>
      <path d="M 41.109375 46.296875 
Q 39.59375 47.171875 37.8125 47.578125 
Q 36.03125 48 33.890625 48 
Q 26.265625 48 22.1875 43.046875 
Q 18.109375 38.09375 18.109375 28.8125 
L 18.109375 0 
L 9.078125 0 
L 9.078125 54.6875 
L 18.109375 54.6875 
L 18.109375 46.1875 
Q 20.953125 51.171875 25.484375 53.578125 
Q 30.03125 56 36.53125 56 
Q 37.453125 56 38.578125 55.875 
Q 39.703125 55.765625 41.0625 55.515625 
z
" id="DejaVuSans-72"/>
      <path d="M 37.109375 75.984375 
L 37.109375 68.5 
L 28.515625 68.5 
Q 23.6875 68.5 21.796875 66.546875 
Q 19.921875 64.59375 19.921875 59.515625 
L 19.921875 54.6875 
L 34.71875 54.6875 
L 34.71875 47.703125 
L 19.921875 47.703125 
L 19.921875 0 
L 10.890625 0 
L 10.890625 47.703125 
L 2.296875 47.703125 
L 2.296875 54.6875 
L 10.890625 54.6875 
L 10.890625 58.5 
Q 10.890625 67.625 15.140625 71.796875 
Q 19.390625 75.984375 28.609375 75.984375 
z
" id="DejaVuSans-66"/>
      <path d="M 48.78125 52.59375 
L 48.78125 44.1875 
Q 44.96875 46.296875 41.140625 47.34375 
Q 37.3125 48.390625 33.40625 48.390625 
Q 24.65625 48.390625 19.8125 42.84375 
Q 14.984375 37.3125 14.984375 27.296875 
Q 14.984375 17.28125 19.8125 11.734375 
Q 24.65625 6.203125 33.40625 6.203125 
Q 37.3125 6.203125 41.140625 7.25 
Q 44.96875 8.296875 48.78125 10.40625 
L 48.78125 2.09375 
Q 45.015625 0.34375 40.984375 -0.53125 
Q 36.96875 -1.421875 32.421875 -1.421875 
Q 20.0625 -1.421875 12.78125 6.34375 
Q 5.515625 14.109375 5.515625 27.296875 
Q 5.515625 40.671875 12.859375 48.328125 
Q 20.21875 56 33.015625 56 
Q 37.15625 56 41.109375 55.140625 
Q 45.0625 54.296875 48.78125 52.59375 
z
" id="DejaVuSans-63"/>
      <path d="M 18.3125 70.21875 
L 18.3125 54.6875 
L 36.8125 54.6875 
L 36.8125 47.703125 
L 18.3125 47.703125 
L 18.3125 18.015625 
Q 18.3125 11.328125 20.140625 9.421875 
Q 21.96875 7.515625 27.59375 7.515625 
L 36.8125 7.515625 
L 36.8125 0 
L 27.59375 0 
Q 17.1875 0 13.234375 3.875 
Q 9.28125 7.765625 9.28125 18.015625 
L 9.28125 47.703125 
L 2.6875 47.703125 
L 2.6875 54.6875 
L 9.28125 54.6875 
L 9.28125 70.21875 
z
" id="DejaVuSans-74"/>
      <path d="M 30.609375 48.390625 
Q 23.390625 48.390625 19.1875 42.75 
Q 14.984375 37.109375 14.984375 27.296875 
Q 14.984375 17.484375 19.15625 11.84375 
Q 23.34375 6.203125 30.609375 6.203125 
Q 37.796875 6.203125 41.984375 11.859375 
Q 46.1875 17.53125 46.1875 27.296875 
Q 46.1875 37.015625 41.984375 42.703125 
Q 37.796875 48.390625 30.609375 48.390625 
z
M 30.609375 56 
Q 42.328125 56 49.015625 48.375 
Q 55.71875 40.765625 55.71875 27.296875 
Q 55.71875 13.875 49.015625 6.21875 
Q 42.328125 -1.421875 30.609375 -1.421875 
Q 18.84375 -1.421875 12.171875 6.21875 
Q 5.515625 13.875 5.515625 27.296875 
Q 5.515625 40.765625 12.171875 48.375 
Q 18.84375 56 30.609375 56 
z
" id="DejaVuSans-6f"/>
     </defs>
     <g transform="translate(152.552955 197.992562)scale(0.14 -0.14)">
      <use xlink:href="#DejaVuSans-53"/>
      <use x="63.476562" xlink:href="#DejaVuSans-70"/>
      <use x="126.953125" xlink:href="#DejaVuSans-65"/>
      <use x="188.476562" xlink:href="#DejaVuSans-65"/>
      <use x="250" xlink:href="#DejaVuSans-64"/>
      <use x="313.476562" xlink:href="#DejaVuSans-20"/>
      <use x="345.263672" xlink:href="#DejaVuSans-69"/>
      <use x="373.046875" xlink:href="#DejaVuSans-6e"/>
      <use x="436.425781" xlink:href="#DejaVuSans-20"/>
      <use x="468.212891" xlink:href="#DejaVuSans-70"/>
      <use x="531.689453" xlink:href="#DejaVuSans-72"/>
      <use x="572.771484" xlink:href="#DejaVuSans-65"/>
      <use x="634.294922" xlink:href="#DejaVuSans-66"/>
      <use x="669.5" xlink:href="#DejaVuSans-65"/>
      <use x="731.023438" xlink:href="#DejaVuSans-72"/>
      <use x="772.121094" xlink:href="#DejaVuSans-72"/>
      <use x="813.203125" xlink:href="#DejaVuSans-65"/>
      <use x="874.726562" xlink:href="#DejaVuSans-64"/>
      <use x="938.203125" xlink:href="#DejaVuSans-20"/>
      <use x="969.990234" xlink:href="#DejaVuSans-64"/>
      <use x="1033.466797" xlink:href="#DejaVuSans-69"/>
      <use x="1061.25" xlink:href="#DejaVuSans-72"/>
      <use x="1102.332031" xlink:href="#DejaVuSans-65"/>
      <use x="1163.855469" xlink:href="#DejaVuSans-63"/>
      <use x="1218.835938" xlink:href="#DejaVuSans-74"/>
      <use x="1258.044922" xlink:href="#DejaVuSans-69"/>
      <use x="1285.828125" xlink:href="#DejaVuSans-6f"/>
      <use x="1347.009766" xlink:href="#DejaVuSans-6e"/>
     </g>
    </g>
   </g>
   <g id="matplotlib.axis_2">
    <g id="ytick_1">
     <g id="line2d_6">
      <defs>
       <path d="M 0 0 
L -3.5 0 
" id="m2327e9c5cf" style="stroke:#000000;stroke-width:0.8;"/>
      </defs>
      <g>
       <use style="stroke:#000000;stroke-width:0.8;" x="194.109375" xlink:href="#m2327e9c5cf" y="156.585375"/>
      </g>
     </g>
     <g id="text_7">
      <!-- 0.0 -->
      <g transform="translate(164.845 161.904281)scale(0.14 -0.14)">
       <use xlink:href="#DejaVuSans-30"/>
       <use x="63.623047" xlink:href="#DejaVuSans-2e"/>
       <use x="95.410156" xlink:href="#DejaVuSans-30"/>
      </g>
     </g>
    </g>
    <g id="ytick_2">
     <g id="line2d_7">
      <g>
       <use style="stroke:#000000;stroke-width:0.8;" x="194.109375" xlink:href="#m2327e9c5cf" y="94.385375"/>
      </g>
     </g>
     <g id="text_8">
      <!-- 0.5 -->
      <g transform="translate(164.845 99.704281)scale(0.14 -0.14)">
       <use xlink:href="#DejaVuSans-30"/>
       <use x="63.623047" xlink:href="#DejaVuSans-2e"/>
       <use x="95.410156" xlink:href="#DejaVuSans-35"/>
      </g>
     </g>
    </g>
    <g id="ytick_3">
     <g id="line2d_8">
      <g>
       <use style="stroke:#000000;stroke-width:0.8;" x="194.109375" xlink:href="#m2327e9c5cf" y="32.185375"/>
      </g>
     </g>
     <g id="text_9">
      <!-- 1.0 -->
      <g transform="translate(164.845 37.504281)scale(0.14 -0.14)">
       <use xlink:href="#DejaVuSans-31"/>
       <use x="63.623047" xlink:href="#DejaVuSans-2e"/>
       <use x="95.410156" xlink:href="#DejaVuSans-30"/>
      </g>
     </g>
    </g>
    <g id="text_10">
     <!-- Output firing rate -->
     <defs>
      <path d="M 39.40625 66.21875 
Q 28.65625 66.21875 22.328125 58.203125 
Q 16.015625 50.203125 16.015625 36.375 
Q 16.015625 22.609375 22.328125 14.59375 
Q 28.65625 6.59375 39.40625 6.59375 
Q 50.140625 6.59375 56.421875 14.59375 
Q 62.703125 22.609375 62.703125 36.375 
Q 62.703125 50.203125 56.421875 58.203125 
Q 50.140625 66.21875 39.40625 66.21875 
z
M 39.40625 74.21875 
Q 54.734375 74.21875 63.90625 63.9375 
Q 73.09375 53.65625 73.09375 36.375 
Q 73.09375 19.140625 63.90625 8.859375 
Q 54.734375 -1.421875 39.40625 -1.421875 
Q 24.03125 -1.421875 14.8125 8.828125 
Q 5.609375 19.09375 5.609375 36.375 
Q 5.609375 53.65625 14.8125 63.9375 
Q 24.03125 74.21875 39.40625 74.21875 
z
" id="DejaVuSans-4f"/>
      <path d="M 8.5 21.578125 
L 8.5 54.6875 
L 17.484375 54.6875 
L 17.484375 21.921875 
Q 17.484375 14.15625 20.5 10.265625 
Q 23.53125 6.390625 29.59375 6.390625 
Q 36.859375 6.390625 41.078125 11.03125 
Q 45.3125 15.671875 45.3125 23.6875 
L 45.3125 54.6875 
L 54.296875 54.6875 
L 54.296875 0 
L 45.3125 0 
L 45.3125 8.40625 
Q 42.046875 3.421875 37.71875 1 
Q 33.40625 -1.421875 27.6875 -1.421875 
Q 18.265625 -1.421875 13.375 4.4375 
Q 8.5 10.296875 8.5 21.578125 
z
M 31.109375 56 
z
" id="DejaVuSans-75"/>
      <path d="M 45.40625 27.984375 
Q 45.40625 37.75 41.375 43.109375 
Q 37.359375 48.484375 30.078125 48.484375 
Q 22.859375 48.484375 18.828125 43.109375 
Q 14.796875 37.75 14.796875 27.984375 
Q 14.796875 18.265625 18.828125 12.890625 
Q 22.859375 7.515625 30.078125 7.515625 
Q 37.359375 7.515625 41.375 12.890625 
Q 45.40625 18.265625 45.40625 27.984375 
z
M 54.390625 6.78125 
Q 54.390625 -7.171875 48.1875 -13.984375 
Q 42 -20.796875 29.203125 -20.796875 
Q 24.46875 -20.796875 20.265625 -20.09375 
Q 16.0625 -19.390625 12.109375 -17.921875 
L 12.109375 -9.1875 
Q 16.0625 -11.328125 19.921875 -12.34375 
Q 23.78125 -13.375 27.78125 -13.375 
Q 36.625 -13.375 41.015625 -8.765625 
Q 45.40625 -4.15625 45.40625 5.171875 
L 45.40625 9.625 
Q 42.625 4.78125 38.28125 2.390625 
Q 33.9375 0 27.875 0 
Q 17.828125 0 11.671875 7.65625 
Q 5.515625 15.328125 5.515625 27.984375 
Q 5.515625 40.671875 11.671875 48.328125 
Q 17.828125 56 27.875 56 
Q 33.9375 56 38.28125 53.609375 
Q 42.625 51.21875 45.40625 46.390625 
L 45.40625 54.6875 
L 54.390625 54.6875 
z
" id="DejaVuSans-67"/>
      <path d="M 34.28125 27.484375 
Q 23.390625 27.484375 19.1875 25 
Q 14.984375 22.515625 14.984375 16.5 
Q 14.984375 11.71875 18.140625 8.90625 
Q 21.296875 6.109375 26.703125 6.109375 
Q 34.1875 6.109375 38.703125 11.40625 
Q 43.21875 16.703125 43.21875 25.484375 
L 43.21875 27.484375 
z
M 52.203125 31.203125 
L 52.203125 0 
L 43.21875 0 
L 43.21875 8.296875 
Q 40.140625 3.328125 35.546875 0.953125 
Q 30.953125 -1.421875 24.3125 -1.421875 
Q 15.921875 -1.421875 10.953125 3.296875 
Q 6 8.015625 6 15.921875 
Q 6 25.140625 12.171875 29.828125 
Q 18.359375 34.515625 30.609375 34.515625 
L 43.21875 34.515625 
L 43.21875 35.40625 
Q 43.21875 41.609375 39.140625 45 
Q 35.0625 48.390625 27.6875 48.390625 
Q 23 48.390625 18.546875 47.265625 
Q 14.109375 46.140625 10.015625 43.890625 
L 10.015625 52.203125 
Q 14.9375 54.109375 19.578125 55.046875 
Q 24.21875 56 28.609375 56 
Q 40.484375 56 46.34375 49.84375 
Q 52.203125 43.703125 52.203125 31.203125 
z
" id="DejaVuSans-61"/>
     </defs>
     <g transform="translate(157.933437 155.480062)rotate(-90)scale(0.14 -0.14)">
      <use xlink:href="#DejaVuSans-4f"/>
      <use x="78.710938" xlink:href="#DejaVuSans-75"/>
      <use x="142.089844" xlink:href="#DejaVuSans-74"/>
      <use x="181.298828" xlink:href="#DejaVuSans-70"/>
      <use x="244.775391" xlink:href="#DejaVuSans-75"/>
      <use x="308.154297" xlink:href="#DejaVuSans-74"/>
      <use x="347.363281" xlink:href="#DejaVuSans-20"/>
      <use x="379.150391" xlink:href="#DejaVuSans-66"/>
      <use x="414.355469" xlink:href="#DejaVuSans-69"/>
      <use x="442.138672" xlink:href="#DejaVuSans-72"/>
      <use x="483.251953" xlink:href="#DejaVuSans-69"/>
      <use x="511.035156" xlink:href="#DejaVuSans-6e"/>
      <use x="574.414062" xlink:href="#DejaVuSans-67"/>
      <use x="637.890625" xlink:href="#DejaVuSans-20"/>
      <use x="669.677734" xlink:href="#DejaVuSans-72"/>
      <use x="710.791016" xlink:href="#DejaVuSans-61"/>
      <use x="772.070312" xlink:href="#DejaVuSans-74"/>
      <use x="811.279297" xlink:href="#DejaVuSans-65"/>
     </g>
    </g>
   </g>
   <g id="line2d_9">
    <path clip-path="url(#p463bb1bcd8)" d="M 194.109375 32.185375 
L 195.264409 33.441941 
L 196.419444 34.698506 
L 197.574478 35.955072 
L 198.729513 37.211638 
L 199.884547 38.468203 
L 201.039582 39.724769 
L 202.194616 40.981335 
L 203.34965 42.2379 
L 204.504685 43.494466 
L 205.659719 44.751032 
L 206.814754 46.007597 
L 207.969788 47.264163 
L 209.124823 48.520729 
L 210.279857 49.777294 
L 211.434892 51.03386 
L 212.589926 52.290426 
L 213.74496 53.546991 
L 214.899995 54.803557 
L 216.055029 56.060122 
L 217.210064 57.316688 
L 218.365098 58.573254 
L 219.520133 59.829819 
L 220.675167 61.086385 
L 221.830201 62.342951 
L 222.985236 63.599516 
L 224.14027 64.856082 
L 225.295305 66.112648 
L 226.450339 67.369213 
L 227.605374 68.625779 
L 228.760408 69.882345 
L 229.915442 71.13891 
L 231.070477 72.395476 
L 232.225511 73.652042 
L 233.380546 74.908607 
L 234.53558 76.165173 
L 235.690615 77.421739 
L 236.845649 78.678304 
L 238.000684 79.93487 
L 239.155718 81.191436 
L 240.310752 82.448001 
L 241.465787 83.704567 
L 242.620821 84.961133 
L 243.775856 86.217698 
L 244.93089 87.474264 
L 246.085925 88.73083 
L 247.240959 89.987395 
L 248.395993 91.243961 
L 249.551028 92.500527 
L 250.706062 93.757092 
L 251.861097 95.013658 
L 253.016131 96.270223 
L 254.171166 97.526789 
L 255.3262 98.783355 
L 256.481235 100.03992 
L 257.636269 101.296486 
L 258.791303 102.553052 
L 259.946338 103.809617 
L 261.101372 105.066183 
L 262.256407 106.322749 
L 263.411441 107.579314 
L 264.566476 108.83588 
L 265.72151 110.092446 
L 266.876544 111.349011 
L 268.031579 112.605577 
L 269.186613 113.862143 
L 270.341648 115.118708 
L 271.496682 116.375274 
L 272.651717 117.63184 
L 273.806751 118.888405 
L 274.961785 120.144971 
L 276.11682 121.401537 
L 277.271854 122.658102 
L 278.426889 123.914668 
L 279.581923 125.171234 
L 280.736958 126.427799 
L 281.891992 127.684365 
L 283.047027 128.940931 
L 284.202061 130.197496 
L 285.357095 131.454062 
L 286.51213 132.710628 
L 287.667164 133.967193 
L 288.822199 135.223759 
L 289.977233 136.480324 
L 291.132268 137.73689 
L 292.287302 138.993456 
L 293.442336 140.250021 
L 294.597371 141.506587 
L 295.752405 142.763153 
L 296.90744 144.019718 
L 298.062474 145.276284 
L 299.217509 146.53285 
L 300.372543 147.789415 
L 301.527577 149.045981 
L 302.682612 150.302547 
L 303.837646 151.559112 
L 304.992681 152.815678 
L 306.147715 154.072244 
L 307.30275 155.328809 
L 308.457784 156.585375 
" style="fill:none;stroke:#8f7b5d;stroke-linecap:square;stroke-width:1.5;"/>
   </g>
   <g id="line2d_10">
    <path clip-path="url(#p463bb1bcd8)" d="M 251.28358 162.805375 
L 251.28358 25.965375 
" style="fill:none;stroke:#808080;stroke-dasharray:5.55,2.4;stroke-dashoffset:0;stroke-width:1.5;"/>
   </g>
   <g id="patch_3">
    <path d="M 194.109375 162.805375 
L 194.109375 25.965375 
" style="fill:none;stroke:#000000;stroke-linecap:square;stroke-linejoin:miter;stroke-width:0.8;"/>
   </g>
   <g id="patch_4">
    <path d="M 308.457784 162.805375 
L 308.457784 25.965375 
" style="fill:none;stroke:#000000;stroke-linecap:square;stroke-linejoin:miter;stroke-width:0.8;"/>
   </g>
   <g id="patch_5">
    <path d="M 194.109375 162.805375 
L 308.457784 162.805375 
" style="fill:none;stroke:#000000;stroke-linecap:square;stroke-linejoin:miter;stroke-width:0.8;"/>
   </g>
   <g id="patch_6">
    <path d="M 194.109375 25.965375 
L 308.457784 25.965375 
" style="fill:none;stroke:#000000;stroke-linecap:square;stroke-linejoin:miter;stroke-width:0.8;"/>
   </g>
   <g id="text_11">
    <!-- TN1 -->
    <defs>
     <path d="M -0.296875 72.90625 
L 61.375 72.90625 
L 61.375 64.59375 
L 35.5 64.59375 
L 35.5 0 
L 25.59375 0 
L 25.59375 64.59375 
L -0.296875 64.59375 
z
" id="DejaVuSans-54"/>
     <path d="M 9.8125 72.90625 
L 23.09375 72.90625 
L 55.421875 11.921875 
L 55.421875 72.90625 
L 64.984375 72.90625 
L 64.984375 0 
L 51.703125 0 
L 19.390625 60.984375 
L 19.390625 0 
L 9.8125 0 
z
" id="DejaVuSans-4e"/>
    </defs>
    <g transform="translate(234.524267 19.965375)scale(0.168 -0.168)">
     <use xlink:href="#DejaVuSans-54"/>
     <use x="61.083984" xlink:href="#DejaVuSans-4e"/>
     <use x="135.888672" xlink:href="#DejaVuSans-31"/>
    </g>
   </g>
  </g>
  <g id="axes_2">
   <g id="patch_7">
    <path d="M 402.549375 162.805375 
L 516.897784 162.805375 
L 516.897784 25.965375 
L 402.549375 25.965375 
z
" style="fill:#ffffff;"/>
   </g>
   <g id="matplotlib.axis_3">
    <g id="xtick_6">
     <g id="line2d_11">
      <g>
       <use style="stroke:#000000;stroke-width:0.8;" x="402.549375" xlink:href="#ma109a7a49a" y="162.805375"/>
      </g>
     </g>
     <g id="text_12">
      <!-- −1.0 -->
      <g transform="translate(385.551406 180.443187)scale(0.14 -0.14)">
       <use xlink:href="#DejaVuSans-2212"/>
       <use x="83.789062" xlink:href="#DejaVuSans-31"/>
       <use x="147.412109" xlink:href="#DejaVuSans-2e"/>
       <use x="179.199219" xlink:href="#DejaVuSans-30"/>
      </g>
     </g>
    </g>
    <g id="xtick_7">
     <g id="line2d_12">
      <g>
       <use style="stroke:#000000;stroke-width:0.8;" x="431.136477" xlink:href="#ma109a7a49a" y="162.805375"/>
      </g>
     </g>
     <g id="text_13">
      <!-- −0.5 -->
      <g transform="translate(414.138509 180.443187)scale(0.14 -0.14)">
       <use xlink:href="#DejaVuSans-2212"/>
       <use x="83.789062" xlink:href="#DejaVuSans-30"/>
       <use x="147.412109" xlink:href="#DejaVuSans-2e"/>
       <use x="179.199219" xlink:href="#DejaVuSans-35"/>
      </g>
     </g>
    </g>
    <g id="xtick_8">
     <g id="line2d_13">
      <g>
       <use style="stroke:#000000;stroke-width:0.8;" x="459.72358" xlink:href="#ma109a7a49a" y="162.805375"/>
      </g>
     </g>
     <g id="text_14">
      <!-- 0.0 -->
      <g transform="translate(448.591392 180.443187)scale(0.14 -0.14)">
       <use xlink:href="#DejaVuSans-30"/>
       <use x="63.623047" xlink:href="#DejaVuSans-2e"/>
       <use x="95.410156" xlink:href="#DejaVuSans-30"/>
      </g>
     </g>
    </g>
    <g id="xtick_9">
     <g id="line2d_14">
      <g>
       <use style="stroke:#000000;stroke-width:0.8;" x="488.310682" xlink:href="#ma109a7a49a" y="162.805375"/>
      </g>
     </g>
     <g id="text_15">
      <!-- 0.5 -->
      <g transform="translate(477.178494 180.443187)scale(0.14 -0.14)">
       <use xlink:href="#DejaVuSans-30"/>
       <use x="63.623047" xlink:href="#DejaVuSans-2e"/>
       <use x="95.410156" xlink:href="#DejaVuSans-35"/>
      </g>
     </g>
    </g>
    <g id="xtick_10">
     <g id="line2d_15">
      <g>
       <use style="stroke:#000000;stroke-width:0.8;" x="516.897784" xlink:href="#ma109a7a49a" y="162.805375"/>
      </g>
     </g>
     <g id="text_16">
      <!-- 1.0 -->
      <g transform="translate(505.765597 180.443187)scale(0.14 -0.14)">
       <use xlink:href="#DejaVuSans-31"/>
       <use x="63.623047" xlink:href="#DejaVuSans-2e"/>
       <use x="95.410156" xlink:href="#DejaVuSans-30"/>
      </g>
     </g>
    </g>
    <g id="text_17">
     <!-- Speed in preferred direction -->
     <g transform="translate(360.992955 197.992562)scale(0.14 -0.14)">
      <use xlink:href="#DejaVuSans-53"/>
      <use x="63.476562" xlink:href="#DejaVuSans-70"/>
      <use x="126.953125" xlink:href="#DejaVuSans-65"/>
      <use x="188.476562" xlink:href="#DejaVuSans-65"/>
      <use x="250" xlink:href="#DejaVuSans-64"/>
      <use x="313.476562" xlink:href="#DejaVuSans-20"/>
      <use x="345.263672" xlink:href="#DejaVuSans-69"/>
      <use x="373.046875" xlink:href="#DejaVuSans-6e"/>
      <use x="436.425781" xlink:href="#DejaVuSans-20"/>
      <use x="468.212891" xlink:href="#DejaVuSans-70"/>
      <use x="531.689453" xlink:href="#DejaVuSans-72"/>
      <use x="572.771484" xlink:href="#DejaVuSans-65"/>
      <use x="634.294922" xlink:href="#DejaVuSans-66"/>
      <use x="669.5" xlink:href="#DejaVuSans-65"/>
      <use x="731.023438" xlink:href="#DejaVuSans-72"/>
      <use x="772.121094" xlink:href="#DejaVuSans-72"/>
      <use x="813.203125" xlink:href="#DejaVuSans-65"/>
      <use x="874.726562" xlink:href="#DejaVuSans-64"/>
      <use x="938.203125" xlink:href="#DejaVuSans-20"/>
      <use x="969.990234" xlink:href="#DejaVuSans-64"/>
      <use x="1033.466797" xlink:href="#DejaVuSans-69"/>
      <use x="1061.25" xlink:href="#DejaVuSans-72"/>
      <use x="1102.332031" xlink:href="#DejaVuSans-65"/>
      <use x="1163.855469" xlink:href="#DejaVuSans-63"/>
      <use x="1218.835938" xlink:href="#DejaVuSans-74"/>
      <use x="1258.044922" xlink:href="#DejaVuSans-69"/>
      <use x="1285.828125" xlink:href="#DejaVuSans-6f"/>
      <use x="1347.009766" xlink:href="#DejaVuSans-6e"/>
     </g>
    </g>
   </g>
   <g id="matplotlib.axis_4">
    <g id="ytick_4">
     <g id="line2d_16">
      <g>
       <use style="stroke:#000000;stroke-width:0.8;" x="402.549375" xlink:href="#m2327e9c5cf" y="156.585375"/>
      </g>
     </g>
     <g id="text_18">
      <!-- 0.0 -->
      <g transform="translate(373.285 161.904281)scale(0.14 -0.14)">
       <use xlink:href="#DejaVuSans-30"/>
       <use x="63.623047" xlink:href="#DejaVuSans-2e"/>
       <use x="95.410156" xlink:href="#DejaVuSans-30"/>
      </g>
     </g>
    </g>
    <g id="ytick_5">
     <g id="line2d_17">
      <g>
       <use style="stroke:#000000;stroke-width:0.8;" x="402.549375" xlink:href="#m2327e9c5cf" y="94.385375"/>
      </g>
     </g>
     <g id="text_19">
      <!-- 0.5 -->
      <g transform="translate(373.285 99.704281)scale(0.14 -0.14)">
       <use xlink:href="#DejaVuSans-30"/>
       <use x="63.623047" xlink:href="#DejaVuSans-2e"/>
       <use x="95.410156" xlink:href="#DejaVuSans-35"/>
      </g>
     </g>
    </g>
    <g id="ytick_6">
     <g id="line2d_18">
      <g>
       <use style="stroke:#000000;stroke-width:0.8;" x="402.549375" xlink:href="#m2327e9c5cf" y="32.185375"/>
      </g>
     </g>
     <g id="text_20">
      <!-- 1.0 -->
      <g transform="translate(373.285 37.504281)scale(0.14 -0.14)">
       <use xlink:href="#DejaVuSans-31"/>
       <use x="63.623047" xlink:href="#DejaVuSans-2e"/>
       <use x="95.410156" xlink:href="#DejaVuSans-30"/>
      </g>
     </g>
    </g>
    <g id="text_21">
     <!-- Output firing rate -->
     <g transform="translate(366.373437 155.480062)rotate(-90)scale(0.14 -0.14)">
      <use xlink:href="#DejaVuSans-4f"/>
      <use x="78.710938" xlink:href="#DejaVuSans-75"/>
      <use x="142.089844" xlink:href="#DejaVuSans-74"/>
      <use x="181.298828" xlink:href="#DejaVuSans-70"/>
      <use x="244.775391" xlink:href="#DejaVuSans-75"/>
      <use x="308.154297" xlink:href="#DejaVuSans-74"/>
      <use x="347.363281" xlink:href="#DejaVuSans-20"/>
      <use x="379.150391" xlink:href="#DejaVuSans-66"/>
      <use x="414.355469" xlink:href="#DejaVuSans-69"/>
      <use x="442.138672" xlink:href="#DejaVuSans-72"/>
      <use x="483.251953" xlink:href="#DejaVuSans-69"/>
      <use x="511.035156" xlink:href="#DejaVuSans-6e"/>
      <use x="574.414062" xlink:href="#DejaVuSans-67"/>
      <use x="637.890625" xlink:href="#DejaVuSans-20"/>
      <use x="669.677734" xlink:href="#DejaVuSans-72"/>
      <use x="710.791016" xlink:href="#DejaVuSans-61"/>
      <use x="772.070312" xlink:href="#DejaVuSans-74"/>
      <use x="811.279297" xlink:href="#DejaVuSans-65"/>
     </g>
    </g>
   </g>
   <g id="line2d_19">
    <path clip-path="url(#p5d5c776e05)" d="M 402.549375 156.585375 
L 403.704409 156.585375 
L 404.859444 156.585375 
L 406.014478 156.585375 
L 407.169513 156.585375 
L 408.324547 156.585375 
L 409.479582 156.585375 
L 410.634616 156.585375 
L 411.78965 156.585375 
L 412.944685 156.585375 
L 414.099719 156.585375 
L 415.254754 156.585375 
L 416.409788 156.585375 
L 417.564823 156.585375 
L 418.719857 156.585375 
L 419.874892 156.585375 
L 421.029926 156.585375 
L 422.18496 156.585375 
L 423.339995 156.585375 
L 424.495029 156.585375 
L 425.650064 156.585375 
L 426.805098 156.585375 
L 427.960133 156.585375 
L 429.115167 156.585375 
L 430.270201 156.585375 
L 431.425236 156.585375 
L 432.58027 156.585375 
L 433.735305 156.585375 
L 434.890339 156.585375 
L 436.045374 156.585375 
L 437.200408 156.585375 
L 438.355442 156.585375 
L 439.510477 156.585375 
L 440.665511 156.585375 
L 441.820546 156.585375 
L 442.97558 156.585375 
L 444.130615 156.585375 
L 445.285649 156.585375 
L 446.440684 156.585375 
L 447.595718 156.585375 
L 448.750752 156.585375 
L 449.905787 156.585375 
L 451.060821 156.585375 
L 452.215856 156.585375 
L 453.37089 156.585375 
L 454.525925 156.585375 
L 455.680959 156.585375 
L 456.835993 156.585375 
L 457.991028 156.585375 
L 459.146062 156.585375 
L 460.301097 155.328809 
L 461.456131 152.815678 
L 462.611166 150.302547 
L 463.7662 147.789415 
L 464.921235 145.276284 
L 466.076269 142.763153 
L 467.231303 140.250021 
L 468.386338 137.73689 
L 469.541372 135.223759 
L 470.696407 132.710628 
L 471.851441 130.197496 
L 473.006476 127.684365 
L 474.16151 125.171234 
L 475.316544 122.658102 
L 476.471579 120.144971 
L 477.626613 117.63184 
L 478.781648 115.118708 
L 479.936682 112.605577 
L 481.091717 110.092446 
L 482.246751 107.579314 
L 483.401785 105.066183 
L 484.55682 102.553052 
L 485.711854 100.03992 
L 486.866889 97.526789 
L 488.021923 95.013658 
L 489.176958 92.500527 
L 490.331992 89.987395 
L 491.487027 87.474264 
L 492.642061 84.961133 
L 493.797095 82.448001 
L 494.95213 79.93487 
L 496.107164 77.421739 
L 497.262199 74.908607 
L 498.417233 72.395476 
L 499.572268 69.882345 
L 500.727302 67.369213 
L 501.882336 64.856082 
L 503.037371 62.342951 
L 504.192405 59.829819 
L 505.34744 57.316688 
L 506.502474 54.803557 
L 507.657509 52.290426 
L 508.812543 49.777294 
L 509.967577 47.264163 
L 511.122612 44.751032 
L 512.277646 42.2379 
L 513.432681 39.724769 
L 514.587715 37.211638 
L 515.74275 34.698506 
L 516.897784 32.185375 
" style="fill:none;stroke:#654718;stroke-linecap:square;stroke-width:1.5;"/>
   </g>
   <g id="line2d_20">
    <path clip-path="url(#p5d5c776e05)" d="M 459.72358 162.805375 
L 459.72358 25.965375 
" style="fill:none;stroke:#808080;stroke-dasharray:5.55,2.4;stroke-dashoffset:0;stroke-width:1.5;"/>
   </g>
   <g id="patch_8">
    <path d="M 402.549375 162.805375 
L 402.549375 25.965375 
" style="fill:none;stroke:#000000;stroke-linecap:square;stroke-linejoin:miter;stroke-width:0.8;"/>
   </g>
   <g id="patch_9">
    <path d="M 516.897784 162.805375 
L 516.897784 25.965375 
" style="fill:none;stroke:#000000;stroke-linecap:square;stroke-linejoin:miter;stroke-width:0.8;"/>
   </g>
   <g id="patch_10">
    <path d="M 402.549375 162.805375 
L 516.897784 162.805375 
" style="fill:none;stroke:#000000;stroke-linecap:square;stroke-linejoin:miter;stroke-width:0.8;"/>
   </g>
   <g id="patch_11">
    <path d="M 402.549375 25.965375 
L 516.897784 25.965375 
" style="fill:none;stroke:#000000;stroke-linecap:square;stroke-linejoin:miter;stroke-width:0.8;"/>
   </g>
   <g id="text_22">
    <!-- TN2 -->
    <defs>
     <path d="M 19.1875 8.296875 
L 53.609375 8.296875 
L 53.609375 0 
L 7.328125 0 
L 7.328125 8.296875 
Q 12.9375 14.109375 22.625 23.890625 
Q 32.328125 33.6875 34.8125 36.53125 
Q 39.546875 41.84375 41.421875 45.53125 
Q 43.3125 49.21875 43.3125 52.78125 
Q 43.3125 58.59375 39.234375 62.25 
Q 35.15625 65.921875 28.609375 65.921875 
Q 23.96875 65.921875 18.8125 64.3125 
Q 13.671875 62.703125 7.8125 59.421875 
L 7.8125 69.390625 
Q 13.765625 71.78125 18.9375 73 
Q 24.125 74.21875 28.421875 74.21875 
Q 39.75 74.21875 46.484375 68.546875 
Q 53.21875 62.890625 53.21875 53.421875 
Q 53.21875 48.921875 51.53125 44.890625 
Q 49.859375 40.875 45.40625 35.40625 
Q 44.1875 33.984375 37.640625 27.21875 
Q 31.109375 20.453125 19.1875 8.296875 
z
" id="DejaVuSans-32"/>
    </defs>
    <g transform="translate(442.964267 19.965375)scale(0.168 -0.168)">
     <use xlink:href="#DejaVuSans-54"/>
     <use x="61.083984" xlink:href="#DejaVuSans-4e"/>
     <use x="135.888672" xlink:href="#DejaVuSans-32"/>
    </g>
   </g>
  </g>
  <g id="axes_3">
   <g id="patch_12">
    <path d="M 194.109375 373.765375 
L 308.457784 373.765375 
L 308.457784 236.925375 
L 194.109375 236.925375 
z
" style="fill:#ffffff;"/>
   </g>
   <g id="matplotlib.axis_5">
    <g id="xtick_11">
     <g id="line2d_21">
      <g>
       <use style="stroke:#000000;stroke-width:0.8;" x="194.109375" xlink:href="#ma109a7a49a" y="373.765375"/>
      </g>
     </g>
     <g id="text_23">
      <!-- −1.0 -->
      <g transform="translate(177.111406 391.403187)scale(0.14 -0.14)">
       <use xlink:href="#DejaVuSans-2212"/>
       <use x="83.789062" xlink:href="#DejaVuSans-31"/>
       <use x="147.412109" xlink:href="#DejaVuSans-2e"/>
       <use x="179.199219" xlink:href="#DejaVuSans-30"/>
      </g>
     </g>
    </g>
    <g id="xtick_12">
     <g id="line2d_22">
      <g>
       <use style="stroke:#000000;stroke-width:0.8;" x="222.696477" xlink:href="#ma109a7a49a" y="373.765375"/>
      </g>
     </g>
     <g id="text_24">
      <!-- −0.5 -->
      <g transform="translate(205.698509 391.403187)scale(0.14 -0.14)">
       <use xlink:href="#DejaVuSans-2212"/>
       <use x="83.789062" xlink:href="#DejaVuSans-30"/>
       <use x="147.412109" xlink:href="#DejaVuSans-2e"/>
       <use x="179.199219" xlink:href="#DejaVuSans-35"/>
      </g>
     </g>
    </g>
    <g id="xtick_13">
     <g id="line2d_23">
      <g>
       <use style="stroke:#000000;stroke-width:0.8;" x="251.28358" xlink:href="#ma109a7a49a" y="373.765375"/>
      </g>
     </g>
     <g id="text_25">
      <!-- 0.0 -->
      <g transform="translate(240.151392 391.403187)scale(0.14 -0.14)">
       <use xlink:href="#DejaVuSans-30"/>
       <use x="63.623047" xlink:href="#DejaVuSans-2e"/>
       <use x="95.410156" xlink:href="#DejaVuSans-30"/>
      </g>
     </g>
    </g>
    <g id="xtick_14">
     <g id="line2d_24">
      <g>
       <use style="stroke:#000000;stroke-width:0.8;" x="279.870682" xlink:href="#ma109a7a49a" y="373.765375"/>
      </g>
     </g>
     <g id="text_26">
      <!-- 0.5 -->
      <g transform="translate(268.738494 391.403187)scale(0.14 -0.14)">
       <use xlink:href="#DejaVuSans-30"/>
       <use x="63.623047" xlink:href="#DejaVuSans-2e"/>
       <use x="95.410156" xlink:href="#DejaVuSans-35"/>
      </g>
     </g>
    </g>
    <g id="xtick_15">
     <g id="line2d_25">
      <g>
       <use style="stroke:#000000;stroke-width:0.8;" x="308.457784" xlink:href="#ma109a7a49a" y="373.765375"/>
      </g>
     </g>
     <g id="text_27">
      <!-- 1.0 -->
      <g transform="translate(297.325597 391.403187)scale(0.14 -0.14)">
       <use xlink:href="#DejaVuSans-31"/>
       <use x="63.623047" xlink:href="#DejaVuSans-2e"/>
       <use x="95.410156" xlink:href="#DejaVuSans-30"/>
      </g>
     </g>
    </g>
    <g id="text_28">
     <!-- Speed in preferred direction -->
     <g transform="translate(152.552955 408.952562)scale(0.14 -0.14)">
      <use xlink:href="#DejaVuSans-53"/>
      <use x="63.476562" xlink:href="#DejaVuSans-70"/>
      <use x="126.953125" xlink:href="#DejaVuSans-65"/>
      <use x="188.476562" xlink:href="#DejaVuSans-65"/>
      <use x="250" xlink:href="#DejaVuSans-64"/>
      <use x="313.476562" xlink:href="#DejaVuSans-20"/>
      <use x="345.263672" xlink:href="#DejaVuSans-69"/>
      <use x="373.046875" xlink:href="#DejaVuSans-6e"/>
      <use x="436.425781" xlink:href="#DejaVuSans-20"/>
      <use x="468.212891" xlink:href="#DejaVuSans-70"/>
      <use x="531.689453" xlink:href="#DejaVuSans-72"/>
      <use x="572.771484" xlink:href="#DejaVuSans-65"/>
      <use x="634.294922" xlink:href="#DejaVuSans-66"/>
      <use x="669.5" xlink:href="#DejaVuSans-65"/>
      <use x="731.023438" xlink:href="#DejaVuSans-72"/>
      <use x="772.121094" xlink:href="#DejaVuSans-72"/>
      <use x="813.203125" xlink:href="#DejaVuSans-65"/>
      <use x="874.726562" xlink:href="#DejaVuSans-64"/>
      <use x="938.203125" xlink:href="#DejaVuSans-20"/>
      <use x="969.990234" xlink:href="#DejaVuSans-64"/>
      <use x="1033.466797" xlink:href="#DejaVuSans-69"/>
      <use x="1061.25" xlink:href="#DejaVuSans-72"/>
      <use x="1102.332031" xlink:href="#DejaVuSans-65"/>
      <use x="1163.855469" xlink:href="#DejaVuSans-63"/>
      <use x="1218.835938" xlink:href="#DejaVuSans-74"/>
      <use x="1258.044922" xlink:href="#DejaVuSans-69"/>
      <use x="1285.828125" xlink:href="#DejaVuSans-6f"/>
      <use x="1347.009766" xlink:href="#DejaVuSans-6e"/>
     </g>
    </g>
   </g>
   <g id="matplotlib.axis_6">
    <g id="ytick_7">
     <g id="line2d_26">
      <g>
       <use style="stroke:#000000;stroke-width:0.8;" x="194.109375" xlink:href="#m2327e9c5cf" y="367.545375"/>
      </g>
     </g>
     <g id="text_29">
      <!-- 0.0 -->
      <g transform="translate(164.845 372.864281)scale(0.14 -0.14)">
       <use xlink:href="#DejaVuSans-30"/>
       <use x="63.623047" xlink:href="#DejaVuSans-2e"/>
       <use x="95.410156" xlink:href="#DejaVuSans-30"/>
      </g>
     </g>
    </g>
    <g id="ytick_8">
     <g id="line2d_27">
      <g>
       <use style="stroke:#000000;stroke-width:0.8;" x="194.109375" xlink:href="#m2327e9c5cf" y="305.345375"/>
      </g>
     </g>
     <g id="text_30">
      <!-- 0.5 -->
      <g transform="translate(164.845 310.664281)scale(0.14 -0.14)">
       <use xlink:href="#DejaVuSans-30"/>
       <use x="63.623047" xlink:href="#DejaVuSans-2e"/>
       <use x="95.410156" xlink:href="#DejaVuSans-35"/>
      </g>
     </g>
    </g>
    <g id="ytick_9">
     <g id="line2d_28">
      <g>
       <use style="stroke:#000000;stroke-width:0.8;" x="194.109375" xlink:href="#m2327e9c5cf" y="243.145375"/>
      </g>
     </g>
     <g id="text_31">
      <!-- 1.0 -->
      <g transform="translate(164.845 248.464281)scale(0.14 -0.14)">
       <use xlink:href="#DejaVuSans-31"/>
       <use x="63.623047" xlink:href="#DejaVuSans-2e"/>
       <use x="95.410156" xlink:href="#DejaVuSans-30"/>
      </g>
     </g>
    </g>
    <g id="text_32">
     <!-- Output firing rate -->
     <g transform="translate(157.933437 366.440062)rotate(-90)scale(0.14 -0.14)">
      <use xlink:href="#DejaVuSans-4f"/>
      <use x="78.710938" xlink:href="#DejaVuSans-75"/>
      <use x="142.089844" xlink:href="#DejaVuSans-74"/>
      <use x="181.298828" xlink:href="#DejaVuSans-70"/>
      <use x="244.775391" xlink:href="#DejaVuSans-75"/>
      <use x="308.154297" xlink:href="#DejaVuSans-74"/>
      <use x="347.363281" xlink:href="#DejaVuSans-20"/>
      <use x="379.150391" xlink:href="#DejaVuSans-66"/>
      <use x="414.355469" xlink:href="#DejaVuSans-69"/>
      <use x="442.138672" xlink:href="#DejaVuSans-72"/>
      <use x="483.251953" xlink:href="#DejaVuSans-69"/>
      <use x="511.035156" xlink:href="#DejaVuSans-6e"/>
      <use x="574.414062" xlink:href="#DejaVuSans-67"/>
      <use x="637.890625" xlink:href="#DejaVuSans-20"/>
      <use x="669.677734" xlink:href="#DejaVuSans-72"/>
      <use x="710.791016" xlink:href="#DejaVuSans-61"/>
      <use x="772.070312" xlink:href="#DejaVuSans-74"/>
      <use x="811.279297" xlink:href="#DejaVuSans-65"/>
     </g>
    </g>
   </g>
   <g id="line2d_29">
    <path clip-path="url(#pc60006c988)" d="M 194.109375 243.145375 
L 195.264409 243.145375 
L 196.419444 243.145375 
L 197.574478 251.69665 
L 198.729513 243.145375 
L 199.884547 269.540858 
L 201.039582 262.536558 
L 202.194616 271.201984 
L 203.34965 259.965119 
L 204.504685 268.165328 
L 205.659719 277.425705 
L 206.814754 269.870317 
L 207.969788 263.729046 
L 209.124823 281.591181 
L 210.279857 243.145375 
L 211.434892 275.523139 
L 212.589926 257.807802 
L 213.74496 257.965035 
L 214.899995 257.278385 
L 216.055029 279.821633 
L 217.210064 289.818942 
L 218.365098 264.546316 
L 219.520133 275.497906 
L 220.675167 273.367444 
L 221.830201 288.032798 
L 222.985236 262.959996 
L 224.14027 281.13892 
L 225.295305 263.927338 
L 226.450339 273.34736 
L 227.605374 258.733021 
L 228.760408 284.214637 
L 229.915442 288.051156 
L 231.070477 275.458176 
L 232.225511 281.590185 
L 233.380546 289.126843 
L 234.53558 300.172597 
L 235.690615 294.840593 
L 236.845649 274.370107 
L 238.000684 271.667206 
L 239.155718 300.90288 
L 240.310752 271.34912 
L 241.465787 287.107445 
L 242.620821 297.625552 
L 243.775856 299.849078 
L 244.93089 321.114111 
L 246.085925 294.503609 
L 247.240959 304.432795 
L 248.395993 301.451486 
L 249.551028 331.4622 
L 250.706062 306.617107 
L 251.861097 288.573447 
L 253.016131 304.660655 
L 254.171166 312.181017 
L 255.3262 297.774608 
L 256.481235 319.981647 
L 257.636269 307.460854 
L 258.791303 342.987529 
L 259.946338 332.288128 
L 261.101372 303.089394 
L 262.256407 306.877059 
L 263.411441 314.910097 
L 264.566476 323.929052 
L 265.72151 336.48601 
L 266.876544 295.239668 
L 268.031579 317.640091 
L 269.186613 324.819593 
L 270.341648 315.888552 
L 271.496682 334.663819 
L 272.651717 327.219879 
L 273.806751 360.227616 
L 274.961785 330.278731 
L 276.11682 351.378074 
L 277.271854 322.57735 
L 278.426889 336.618503 
L 279.581923 330.640343 
L 280.736958 352.356062 
L 281.891992 321.856812 
L 283.047027 333.855438 
L 284.202061 354.095687 
L 285.357095 361.905715 
L 286.51213 324.774125 
L 287.667164 350.143191 
L 288.822199 349.483795 
L 289.977233 337.020848 
L 291.132268 367.545375 
L 292.287302 351.826437 
L 293.442336 330.990165 
L 294.597371 351.255101 
L 295.752405 356.825705 
L 296.90744 367.545375 
L 298.062474 367.545375 
L 299.217509 361.398054 
L 300.372543 356.668499 
L 301.527577 352.691348 
L 302.682612 355.120532 
L 303.837646 367.545375 
L 304.992681 344.895496 
L 306.147715 367.545375 
L 307.30275 357.132834 
L 308.457784 364.063596 
" style="fill:none;stroke:#8f7b5d;stroke-linecap:square;stroke-width:1.5;"/>
   </g>
   <g id="line2d_30">
    <path clip-path="url(#pc60006c988)" d="M 251.28358 373.765375 
L 251.28358 236.925375 
" style="fill:none;stroke:#808080;stroke-dasharray:5.55,2.4;stroke-dashoffset:0;stroke-width:1.5;"/>
   </g>
   <g id="patch_13">
    <path d="M 194.109375 373.765375 
L 194.109375 236.925375 
" style="fill:none;stroke:#000000;stroke-linecap:square;stroke-linejoin:miter;stroke-width:0.8;"/>
   </g>
   <g id="patch_14">
    <path d="M 308.457784 373.765375 
L 308.457784 236.925375 
" style="fill:none;stroke:#000000;stroke-linecap:square;stroke-linejoin:miter;stroke-width:0.8;"/>
   </g>
   <g id="patch_15">
    <path d="M 194.109375 373.765375 
L 308.457784 373.765375 
" style="fill:none;stroke:#000000;stroke-linecap:square;stroke-linejoin:miter;stroke-width:0.8;"/>
   </g>
   <g id="patch_16">
    <path d="M 194.109375 236.925375 
L 308.457784 236.925375 
" style="fill:none;stroke:#000000;stroke-linecap:square;stroke-linejoin:miter;stroke-width:0.8;"/>
   </g>
   <g id="text_33">
    <!-- TN1 -->
    <g transform="translate(234.524267 230.925375)scale(0.168 -0.168)">
     <use xlink:href="#DejaVuSans-54"/>
     <use x="61.083984" xlink:href="#DejaVuSans-4e"/>
     <use x="135.888672" xlink:href="#DejaVuSans-31"/>
    </g>
   </g>
  </g>
  <g id="axes_4">
   <g id="patch_17">
    <path d="M 402.549375 373.765375 
L 516.897784 373.765375 
L 516.897784 236.925375 
L 402.549375 236.925375 
z
" style="fill:#ffffff;"/>
   </g>
   <g id="matplotlib.axis_7">
    <g id="xtick_16">
     <g id="line2d_31">
      <g>
       <use style="stroke:#000000;stroke-width:0.8;" x="402.549375" xlink:href="#ma109a7a49a" y="373.765375"/>
      </g>
     </g>
     <g id="text_34">
      <!-- −1.0 -->
      <g transform="translate(385.551406 391.403187)scale(0.14 -0.14)">
       <use xlink:href="#DejaVuSans-2212"/>
       <use x="83.789062" xlink:href="#DejaVuSans-31"/>
       <use x="147.412109" xlink:href="#DejaVuSans-2e"/>
       <use x="179.199219" xlink:href="#DejaVuSans-30"/>
      </g>
     </g>
    </g>
    <g id="xtick_17">
     <g id="line2d_32">
      <g>
       <use style="stroke:#000000;stroke-width:0.8;" x="431.136477" xlink:href="#ma109a7a49a" y="373.765375"/>
      </g>
     </g>
     <g id="text_35">
      <!-- −0.5 -->
      <g transform="translate(414.138509 391.403187)scale(0.14 -0.14)">
       <use xlink:href="#DejaVuSans-2212"/>
       <use x="83.789062" xlink:href="#DejaVuSans-30"/>
       <use x="147.412109" xlink:href="#DejaVuSans-2e"/>
       <use x="179.199219" xlink:href="#DejaVuSans-35"/>
      </g>
     </g>
    </g>
    <g id="xtick_18">
     <g id="line2d_33">
      <g>
       <use style="stroke:#000000;stroke-width:0.8;" x="459.72358" xlink:href="#ma109a7a49a" y="373.765375"/>
      </g>
     </g>
     <g id="text_36">
      <!-- 0.0 -->
      <g transform="translate(448.591392 391.403187)scale(0.14 -0.14)">
       <use xlink:href="#DejaVuSans-30"/>
       <use x="63.623047" xlink:href="#DejaVuSans-2e"/>
       <use x="95.410156" xlink:href="#DejaVuSans-30"/>
      </g>
     </g>
    </g>
    <g id="xtick_19">
     <g id="line2d_34">
      <g>
       <use style="stroke:#000000;stroke-width:0.8;" x="488.310682" xlink:href="#ma109a7a49a" y="373.765375"/>
      </g>
     </g>
     <g id="text_37">
      <!-- 0.5 -->
      <g transform="translate(477.178494 391.403187)scale(0.14 -0.14)">
       <use xlink:href="#DejaVuSans-30"/>
       <use x="63.623047" xlink:href="#DejaVuSans-2e"/>
       <use x="95.410156" xlink:href="#DejaVuSans-35"/>
      </g>
     </g>
    </g>
    <g id="xtick_20">
     <g id="line2d_35">
      <g>
       <use style="stroke:#000000;stroke-width:0.8;" x="516.897784" xlink:href="#ma109a7a49a" y="373.765375"/>
      </g>
     </g>
     <g id="text_38">
      <!-- 1.0 -->
      <g transform="translate(505.765597 391.403187)scale(0.14 -0.14)">
       <use xlink:href="#DejaVuSans-31"/>
       <use x="63.623047" xlink:href="#DejaVuSans-2e"/>
       <use x="95.410156" xlink:href="#DejaVuSans-30"/>
      </g>
     </g>
    </g>
    <g id="text_39">
     <!-- Speed in preferred direction -->
     <g transform="translate(360.992955 408.952562)scale(0.14 -0.14)">
      <use xlink:href="#DejaVuSans-53"/>
      <use x="63.476562" xlink:href="#DejaVuSans-70"/>
      <use x="126.953125" xlink:href="#DejaVuSans-65"/>
      <use x="188.476562" xlink:href="#DejaVuSans-65"/>
      <use x="250" xlink:href="#DejaVuSans-64"/>
      <use x="313.476562" xlink:href="#DejaVuSans-20"/>
      <use x="345.263672" xlink:href="#DejaVuSans-69"/>
      <use x="373.046875" xlink:href="#DejaVuSans-6e"/>
      <use x="436.425781" xlink:href="#DejaVuSans-20"/>
      <use x="468.212891" xlink:href="#DejaVuSans-70"/>
      <use x="531.689453" xlink:href="#DejaVuSans-72"/>
      <use x="572.771484" xlink:href="#DejaVuSans-65"/>
      <use x="634.294922" xlink:href="#DejaVuSans-66"/>
      <use x="669.5" xlink:href="#DejaVuSans-65"/>
      <use x="731.023438" xlink:href="#DejaVuSans-72"/>
      <use x="772.121094" xlink:href="#DejaVuSans-72"/>
      <use x="813.203125" xlink:href="#DejaVuSans-65"/>
      <use x="874.726562" xlink:href="#DejaVuSans-64"/>
      <use x="938.203125" xlink:href="#DejaVuSans-20"/>
      <use x="969.990234" xlink:href="#DejaVuSans-64"/>
      <use x="1033.466797" xlink:href="#DejaVuSans-69"/>
      <use x="1061.25" xlink:href="#DejaVuSans-72"/>
      <use x="1102.332031" xlink:href="#DejaVuSans-65"/>
      <use x="1163.855469" xlink:href="#DejaVuSans-63"/>
      <use x="1218.835938" xlink:href="#DejaVuSans-74"/>
      <use x="1258.044922" xlink:href="#DejaVuSans-69"/>
      <use x="1285.828125" xlink:href="#DejaVuSans-6f"/>
      <use x="1347.009766" xlink:href="#DejaVuSans-6e"/>
     </g>
    </g>
   </g>
   <g id="matplotlib.axis_8">
    <g id="ytick_10">
     <g id="line2d_36">
      <g>
       <use style="stroke:#000000;stroke-width:0.8;" x="402.549375" xlink:href="#m2327e9c5cf" y="367.545375"/>
      </g>
     </g>
     <g id="text_40">
      <!-- 0.0 -->
      <g transform="translate(373.285 372.864281)scale(0.14 -0.14)">
       <use xlink:href="#DejaVuSans-30"/>
       <use x="63.623047" xlink:href="#DejaVuSans-2e"/>
       <use x="95.410156" xlink:href="#DejaVuSans-30"/>
      </g>
     </g>
    </g>
    <g id="ytick_11">
     <g id="line2d_37">
      <g>
       <use style="stroke:#000000;stroke-width:0.8;" x="402.549375" xlink:href="#m2327e9c5cf" y="305.345375"/>
      </g>
     </g>
     <g id="text_41">
      <!-- 0.5 -->
      <g transform="translate(373.285 310.664281)scale(0.14 -0.14)">
       <use xlink:href="#DejaVuSans-30"/>
       <use x="63.623047" xlink:href="#DejaVuSans-2e"/>
       <use x="95.410156" xlink:href="#DejaVuSans-35"/>
      </g>
     </g>
    </g>
    <g id="ytick_12">
     <g id="line2d_38">
      <g>
       <use style="stroke:#000000;stroke-width:0.8;" x="402.549375" xlink:href="#m2327e9c5cf" y="243.145375"/>
      </g>
     </g>
     <g id="text_42">
      <!-- 1.0 -->
      <g transform="translate(373.285 248.464281)scale(0.14 -0.14)">
       <use xlink:href="#DejaVuSans-31"/>
       <use x="63.623047" xlink:href="#DejaVuSans-2e"/>
       <use x="95.410156" xlink:href="#DejaVuSans-30"/>
      </g>
     </g>
    </g>
    <g id="text_43">
     <!-- Output firing rate -->
     <g transform="translate(366.373437 366.440062)rotate(-90)scale(0.14 -0.14)">
      <use xlink:href="#DejaVuSans-4f"/>
      <use x="78.710938" xlink:href="#DejaVuSans-75"/>
      <use x="142.089844" xlink:href="#DejaVuSans-74"/>
      <use x="181.298828" xlink:href="#DejaVuSans-70"/>
      <use x="244.775391" xlink:href="#DejaVuSans-75"/>
      <use x="308.154297" xlink:href="#DejaVuSans-74"/>
      <use x="347.363281" xlink:href="#DejaVuSans-20"/>
      <use x="379.150391" xlink:href="#DejaVuSans-66"/>
      <use x="414.355469" xlink:href="#DejaVuSans-69"/>
      <use x="442.138672" xlink:href="#DejaVuSans-72"/>
      <use x="483.251953" xlink:href="#DejaVuSans-69"/>
      <use x="511.035156" xlink:href="#DejaVuSans-6e"/>
      <use x="574.414062" xlink:href="#DejaVuSans-67"/>
      <use x="637.890625" xlink:href="#DejaVuSans-20"/>
      <use x="669.677734" xlink:href="#DejaVuSans-72"/>
      <use x="710.791016" xlink:href="#DejaVuSans-61"/>
      <use x="772.070312" xlink:href="#DejaVuSans-74"/>
      <use x="811.279297" xlink:href="#DejaVuSans-65"/>
     </g>
    </g>
   </g>
   <g id="line2d_39">
    <path clip-path="url(#p928bf33fce)" d="M 402.549375 367.545375 
L 403.704409 367.545375 
L 404.859444 367.545375 
L 406.014478 367.545375 
L 407.169513 367.545375 
L 408.324547 367.545375 
L 409.479582 367.545375 
L 410.634616 367.545375 
L 411.78965 367.545375 
L 412.944685 367.545375 
L 414.099719 367.545375 
L 415.254754 367.545375 
L 416.409788 367.545375 
L 417.564823 367.545375 
L 418.719857 367.545375 
L 419.874892 367.545375 
L 421.029926 367.545375 
L 422.18496 367.545375 
L 423.339995 367.545375 
L 424.495029 367.545375 
L 425.650064 367.545375 
L 426.805098 367.545375 
L 427.960133 367.545375 
L 429.115167 367.545375 
L 430.270201 367.545375 
L 431.425236 367.545375 
L 432.58027 367.545375 
L 433.735305 367.545375 
L 434.890339 367.545375 
L 436.045374 367.545375 
L 437.200408 367.545375 
L 438.355442 367.545375 
L 439.510477 367.545375 
L 440.665511 367.545375 
L 441.820546 367.545375 
L 442.97558 367.545375 
L 444.130615 367.545375 
L 445.285649 367.545375 
L 446.440684 367.545375 
L 447.595718 367.545375 
L 448.750752 367.545375 
L 449.905787 367.545375 
L 451.060821 364.547983 
L 452.215856 367.545375 
L 453.37089 367.545375 
L 454.525925 367.545375 
L 455.680959 367.272666 
L 456.835993 367.545375 
L 457.991028 367.545375 
L 459.146062 367.545375 
L 460.301097 367.149646 
L 461.456131 345.846409 
L 462.611166 344.454175 
L 463.7662 339.951589 
L 464.921235 346.258529 
L 466.076269 351.29416 
L 467.231303 348.73471 
L 468.386338 344.860628 
L 469.541372 318.483314 
L 470.696407 321.866162 
L 471.851441 349.540018 
L 473.006476 363.609736 
L 474.16151 319.039663 
L 475.316544 330.019636 
L 476.471579 314.126191 
L 477.626613 341.782505 
L 478.781648 316.331697 
L 479.936682 287.034777 
L 481.091717 306.466609 
L 482.246751 333.208326 
L 483.401785 315.533367 
L 484.55682 306.541726 
L 485.711854 311.148232 
L 486.866889 322.448417 
L 488.021923 294.48254 
L 489.176958 298.739092 
L 490.331992 283.731604 
L 491.487027 280.315907 
L 492.642061 297.091841 
L 493.797095 293.850095 
L 494.95213 276.701528 
L 496.107164 298.019292 
L 497.262199 279.447761 
L 498.417233 281.947853 
L 499.572268 305.831663 
L 500.727302 271.630037 
L 501.882336 264.792559 
L 503.037371 269.747312 
L 504.192405 275.908852 
L 505.34744 271.459724 
L 506.502474 275.028133 
L 507.657509 257.645498 
L 508.812543 273.110714 
L 509.967577 253.065803 
L 511.122612 276.472451 
L 512.277646 248.28585 
L 513.432681 246.30467 
L 514.587715 243.145375 
L 515.74275 263.973535 
L 516.897784 255.813427 
" style="fill:none;stroke:#654718;stroke-linecap:square;stroke-width:1.5;"/>
   </g>
   <g id="line2d_40">
    <path clip-path="url(#p928bf33fce)" d="M 459.72358 373.765375 
L 459.72358 236.925375 
" style="fill:none;stroke:#808080;stroke-dasharray:5.55,2.4;stroke-dashoffset:0;stroke-width:1.5;"/>
   </g>
   <g id="patch_18">
    <path d="M 402.549375 373.765375 
L 402.549375 236.925375 
" style="fill:none;stroke:#000000;stroke-linecap:square;stroke-linejoin:miter;stroke-width:0.8;"/>
   </g>
   <g id="patch_19">
    <path d="M 516.897784 373.765375 
L 516.897784 236.925375 
" style="fill:none;stroke:#000000;stroke-linecap:square;stroke-linejoin:miter;stroke-width:0.8;"/>
   </g>
   <g id="patch_20">
    <path d="M 402.549375 373.765375 
L 516.897784 373.765375 
" style="fill:none;stroke:#000000;stroke-linecap:square;stroke-linejoin:miter;stroke-width:0.8;"/>
   </g>
   <g id="patch_21">
    <path d="M 402.549375 236.925375 
L 516.897784 236.925375 
" style="fill:none;stroke:#000000;stroke-linecap:square;stroke-linejoin:miter;stroke-width:0.8;"/>
   </g>
   <g id="text_44">
    <!-- TN2 -->
    <g transform="translate(442.964267 230.925375)scale(0.168 -0.168)">
     <use xlink:href="#DejaVuSans-54"/>
     <use x="61.083984" xlink:href="#DejaVuSans-4e"/>
     <use x="135.888672" xlink:href="#DejaVuSans-32"/>
    </g>
   </g>
  </g>
  <g id="axes_5">
   <g id="patch_22">
    <path d="M 194.109375 584.725375 
L 308.457784 584.725375 
L 308.457784 447.885375 
L 194.109375 447.885375 
z
" style="fill:#ffffff;"/>
   </g>
   <g id="matplotlib.axis_9">
    <g id="xtick_21">
     <g id="line2d_41">
      <g>
       <use style="stroke:#000000;stroke-width:0.8;" x="194.109375" xlink:href="#ma109a7a49a" y="584.725375"/>
      </g>
     </g>
     <g id="text_45">
      <!-- −1.0 -->
      <g transform="translate(177.111406 602.363187)scale(0.14 -0.14)">
       <use xlink:href="#DejaVuSans-2212"/>
       <use x="83.789062" xlink:href="#DejaVuSans-31"/>
       <use x="147.412109" xlink:href="#DejaVuSans-2e"/>
       <use x="179.199219" xlink:href="#DejaVuSans-30"/>
      </g>
     </g>
    </g>
    <g id="xtick_22">
     <g id="line2d_42">
      <g>
       <use style="stroke:#000000;stroke-width:0.8;" x="222.696477" xlink:href="#ma109a7a49a" y="584.725375"/>
      </g>
     </g>
     <g id="text_46">
      <!-- −0.5 -->
      <g transform="translate(205.698509 602.363187)scale(0.14 -0.14)">
       <use xlink:href="#DejaVuSans-2212"/>
       <use x="83.789062" xlink:href="#DejaVuSans-30"/>
       <use x="147.412109" xlink:href="#DejaVuSans-2e"/>
       <use x="179.199219" xlink:href="#DejaVuSans-35"/>
      </g>
     </g>
    </g>
    <g id="xtick_23">
     <g id="line2d_43">
      <g>
       <use style="stroke:#000000;stroke-width:0.8;" x="251.28358" xlink:href="#ma109a7a49a" y="584.725375"/>
      </g>
     </g>
     <g id="text_47">
      <!-- 0.0 -->
      <g transform="translate(240.151392 602.363187)scale(0.14 -0.14)">
       <use xlink:href="#DejaVuSans-30"/>
       <use x="63.623047" xlink:href="#DejaVuSans-2e"/>
       <use x="95.410156" xlink:href="#DejaVuSans-30"/>
      </g>
     </g>
    </g>
    <g id="xtick_24">
     <g id="line2d_44">
      <g>
       <use style="stroke:#000000;stroke-width:0.8;" x="279.870682" xlink:href="#ma109a7a49a" y="584.725375"/>
      </g>
     </g>
     <g id="text_48">
      <!-- 0.5 -->
      <g transform="translate(268.738494 602.363187)scale(0.14 -0.14)">
       <use xlink:href="#DejaVuSans-30"/>
       <use x="63.623047" xlink:href="#DejaVuSans-2e"/>
       <use x="95.410156" xlink:href="#DejaVuSans-35"/>
      </g>
     </g>
    </g>
    <g id="xtick_25">
     <g id="line2d_45">
      <g>
       <use style="stroke:#000000;stroke-width:0.8;" x="308.457784" xlink:href="#ma109a7a49a" y="584.725375"/>
      </g>
     </g>
     <g id="text_49">
      <!-- 1.0 -->
      <g transform="translate(297.325597 602.363187)scale(0.14 -0.14)">
       <use xlink:href="#DejaVuSans-31"/>
       <use x="63.623047" xlink:href="#DejaVuSans-2e"/>
       <use x="95.410156" xlink:href="#DejaVuSans-30"/>
      </g>
     </g>
    </g>
    <g id="text_50">
     <!-- Speed in preferred direction -->
     <g transform="translate(152.552955 619.912562)scale(0.14 -0.14)">
      <use xlink:href="#DejaVuSans-53"/>
      <use x="63.476562" xlink:href="#DejaVuSans-70"/>
      <use x="126.953125" xlink:href="#DejaVuSans-65"/>
      <use x="188.476562" xlink:href="#DejaVuSans-65"/>
      <use x="250" xlink:href="#DejaVuSans-64"/>
      <use x="313.476562" xlink:href="#DejaVuSans-20"/>
      <use x="345.263672" xlink:href="#DejaVuSans-69"/>
      <use x="373.046875" xlink:href="#DejaVuSans-6e"/>
      <use x="436.425781" xlink:href="#DejaVuSans-20"/>
      <use x="468.212891" xlink:href="#DejaVuSans-70"/>
      <use x="531.689453" xlink:href="#DejaVuSans-72"/>
      <use x="572.771484" xlink:href="#DejaVuSans-65"/>
      <use x="634.294922" xlink:href="#DejaVuSans-66"/>
      <use x="669.5" xlink:href="#DejaVuSans-65"/>
      <use x="731.023438" xlink:href="#DejaVuSans-72"/>
      <use x="772.121094" xlink:href="#DejaVuSans-72"/>
      <use x="813.203125" xlink:href="#DejaVuSans-65"/>
      <use x="874.726562" xlink:href="#DejaVuSans-64"/>
      <use x="938.203125" xlink:href="#DejaVuSans-20"/>
      <use x="969.990234" xlink:href="#DejaVuSans-64"/>
      <use x="1033.466797" xlink:href="#DejaVuSans-69"/>
      <use x="1061.25" xlink:href="#DejaVuSans-72"/>
      <use x="1102.332031" xlink:href="#DejaVuSans-65"/>
      <use x="1163.855469" xlink:href="#DejaVuSans-63"/>
      <use x="1218.835938" xlink:href="#DejaVuSans-74"/>
      <use x="1258.044922" xlink:href="#DejaVuSans-69"/>
      <use x="1285.828125" xlink:href="#DejaVuSans-6f"/>
      <use x="1347.009766" xlink:href="#DejaVuSans-6e"/>
     </g>
    </g>
   </g>
   <g id="matplotlib.axis_10">
    <g id="ytick_13">
     <g id="line2d_46">
      <g>
       <use style="stroke:#000000;stroke-width:0.8;" x="194.109375" xlink:href="#m2327e9c5cf" y="578.505375"/>
      </g>
     </g>
     <g id="text_51">
      <!-- 0.0 -->
      <g transform="translate(164.845 583.824281)scale(0.14 -0.14)">
       <use xlink:href="#DejaVuSans-30"/>
       <use x="63.623047" xlink:href="#DejaVuSans-2e"/>
       <use x="95.410156" xlink:href="#DejaVuSans-30"/>
      </g>
     </g>
    </g>
    <g id="ytick_14">
     <g id="line2d_47">
      <g>
       <use style="stroke:#000000;stroke-width:0.8;" x="194.109375" xlink:href="#m2327e9c5cf" y="516.305375"/>
      </g>
     </g>
     <g id="text_52">
      <!-- 0.5 -->
      <g transform="translate(164.845 521.624281)scale(0.14 -0.14)">
       <use xlink:href="#DejaVuSans-30"/>
       <use x="63.623047" xlink:href="#DejaVuSans-2e"/>
       <use x="95.410156" xlink:href="#DejaVuSans-35"/>
      </g>
     </g>
    </g>
    <g id="ytick_15">
     <g id="line2d_48">
      <g>
       <use style="stroke:#000000;stroke-width:0.8;" x="194.109375" xlink:href="#m2327e9c5cf" y="454.105375"/>
      </g>
     </g>
     <g id="text_53">
      <!-- 1.0 -->
      <g transform="translate(164.845 459.424281)scale(0.14 -0.14)">
       <use xlink:href="#DejaVuSans-31"/>
       <use x="63.623047" xlink:href="#DejaVuSans-2e"/>
       <use x="95.410156" xlink:href="#DejaVuSans-30"/>
      </g>
     </g>
    </g>
    <g id="text_54">
     <!-- Output firing rate -->
     <g transform="translate(157.933437 577.400062)rotate(-90)scale(0.14 -0.14)">
      <use xlink:href="#DejaVuSans-4f"/>
      <use x="78.710938" xlink:href="#DejaVuSans-75"/>
      <use x="142.089844" xlink:href="#DejaVuSans-74"/>
      <use x="181.298828" xlink:href="#DejaVuSans-70"/>
      <use x="244.775391" xlink:href="#DejaVuSans-75"/>
      <use x="308.154297" xlink:href="#DejaVuSans-74"/>
      <use x="347.363281" xlink:href="#DejaVuSans-20"/>
      <use x="379.150391" xlink:href="#DejaVuSans-66"/>
      <use x="414.355469" xlink:href="#DejaVuSans-69"/>
      <use x="442.138672" xlink:href="#DejaVuSans-72"/>
      <use x="483.251953" xlink:href="#DejaVuSans-69"/>
      <use x="511.035156" xlink:href="#DejaVuSans-6e"/>
      <use x="574.414062" xlink:href="#DejaVuSans-67"/>
      <use x="637.890625" xlink:href="#DejaVuSans-20"/>
      <use x="669.677734" xlink:href="#DejaVuSans-72"/>
      <use x="710.791016" xlink:href="#DejaVuSans-61"/>
      <use x="772.070312" xlink:href="#DejaVuSans-74"/>
      <use x="811.279297" xlink:href="#DejaVuSans-65"/>
     </g>
    </g>
   </g>
   <g id="line2d_49">
    <path clip-path="url(#pbacdf01eda)" d="M 194.109375 454.105375 
L 195.264409 489.770086 
L 196.419444 454.105375 
L 197.574478 528.042224 
L 198.729513 554.578587 
L 199.884547 459.517411 
L 201.039582 454.105375 
L 202.194616 460.636947 
L 203.34965 454.105375 
L 204.504685 454.105375 
L 205.659719 454.105375 
L 206.814754 468.337114 
L 207.969788 454.105375 
L 209.124823 508.188669 
L 210.279857 502.218932 
L 211.434892 490.374252 
L 212.589926 454.105375 
L 213.74496 495.585513 
L 214.899995 508.271944 
L 216.055029 454.105375 
L 217.210064 458.480499 
L 218.365098 485.850718 
L 219.520133 473.642453 
L 220.675167 493.009226 
L 221.830201 495.600229 
L 222.985236 513.349056 
L 224.14027 478.409284 
L 225.295305 574.849545 
L 226.450339 461.342672 
L 227.605374 485.010247 
L 228.760408 505.53346 
L 229.915442 454.105375 
L 231.070477 513.748659 
L 232.225511 578.505375 
L 233.380546 471.057779 
L 234.53558 515.48881 
L 235.690615 578.505375 
L 236.845649 480.790613 
L 238.000684 454.105375 
L 239.155718 539.684769 
L 240.310752 532.768785 
L 241.465787 555.344062 
L 242.620821 457.095631 
L 243.775856 515.0947 
L 244.93089 496.41721 
L 246.085925 493.972215 
L 247.240959 539.870978 
L 248.395993 547.636843 
L 249.551028 553.009601 
L 250.706062 534.262707 
L 251.861097 465.226164 
L 253.016131 458.744693 
L 254.171166 506.221895 
L 255.3262 454.105375 
L 256.481235 526.263138 
L 257.636269 554.715636 
L 258.791303 472.958722 
L 259.946338 578.505375 
L 261.101372 505.701993 
L 262.256407 578.505375 
L 263.411441 454.105375 
L 264.566476 567.135701 
L 265.72151 549.62806 
L 266.876544 454.105375 
L 268.031579 578.505375 
L 269.186613 508.321311 
L 270.341648 523.479636 
L 271.496682 561.152915 
L 272.651717 516.357641 
L 273.806751 563.678835 
L 274.961785 497.867356 
L 276.11682 578.505375 
L 277.271854 507.447179 
L 278.426889 469.312075 
L 279.581923 578.505375 
L 280.736958 536.439474 
L 281.891992 563.40145 
L 283.047027 533.463754 
L 284.202061 578.505375 
L 285.357095 503.150185 
L 286.51213 578.505375 
L 287.667164 578.505375 
L 288.822199 518.50483 
L 289.977233 482.014347 
L 291.132268 578.505375 
L 292.287302 578.505375 
L 293.442336 496.993477 
L 294.597371 568.931201 
L 295.752405 499.253862 
L 296.90744 505.654535 
L 298.062474 564.374457 
L 299.217509 454.105375 
L 300.372543 578.505375 
L 301.527577 545.291578 
L 302.682612 578.505375 
L 303.837646 578.505375 
L 304.992681 542.339109 
L 306.147715 484.140652 
L 307.30275 578.505375 
L 308.457784 578.505375 
" style="fill:none;stroke:#8f7b5d;stroke-linecap:square;stroke-width:1.5;"/>
   </g>
   <g id="line2d_50">
    <path clip-path="url(#pbacdf01eda)" d="M 251.28358 584.725375 
L 251.28358 447.885375 
" style="fill:none;stroke:#808080;stroke-dasharray:5.55,2.4;stroke-dashoffset:0;stroke-width:1.5;"/>
   </g>
   <g id="patch_23">
    <path d="M 194.109375 584.725375 
L 194.109375 447.885375 
" style="fill:none;stroke:#000000;stroke-linecap:square;stroke-linejoin:miter;stroke-width:0.8;"/>
   </g>
   <g id="patch_24">
    <path d="M 308.457784 584.725375 
L 308.457784 447.885375 
" style="fill:none;stroke:#000000;stroke-linecap:square;stroke-linejoin:miter;stroke-width:0.8;"/>
   </g>
   <g id="patch_25">
    <path d="M 194.109375 584.725375 
L 308.457784 584.725375 
" style="fill:none;stroke:#000000;stroke-linecap:square;stroke-linejoin:miter;stroke-width:0.8;"/>
   </g>
   <g id="patch_26">
    <path d="M 194.109375 447.885375 
L 308.457784 447.885375 
" style="fill:none;stroke:#000000;stroke-linecap:square;stroke-linejoin:miter;stroke-width:0.8;"/>
   </g>
   <g id="text_55">
    <!-- TN1 -->
    <g transform="translate(234.524267 441.885375)scale(0.168 -0.168)">
     <use xlink:href="#DejaVuSans-54"/>
     <use x="61.083984" xlink:href="#DejaVuSans-4e"/>
     <use x="135.888672" xlink:href="#DejaVuSans-31"/>
    </g>
   </g>
  </g>
  <g id="axes_6">
   <g id="patch_27">
    <path d="M 402.549375 584.725375 
L 516.897784 584.725375 
L 516.897784 447.885375 
L 402.549375 447.885375 
z
" style="fill:#ffffff;"/>
   </g>
   <g id="matplotlib.axis_11">
    <g id="xtick_26">
     <g id="line2d_51">
      <g>
       <use style="stroke:#000000;stroke-width:0.8;" x="402.549375" xlink:href="#ma109a7a49a" y="584.725375"/>
      </g>
     </g>
     <g id="text_56">
      <!-- −1.0 -->
      <g transform="translate(385.551406 602.363187)scale(0.14 -0.14)">
       <use xlink:href="#DejaVuSans-2212"/>
       <use x="83.789062" xlink:href="#DejaVuSans-31"/>
       <use x="147.412109" xlink:href="#DejaVuSans-2e"/>
       <use x="179.199219" xlink:href="#DejaVuSans-30"/>
      </g>
     </g>
    </g>
    <g id="xtick_27">
     <g id="line2d_52">
      <g>
       <use style="stroke:#000000;stroke-width:0.8;" x="431.136477" xlink:href="#ma109a7a49a" y="584.725375"/>
      </g>
     </g>
     <g id="text_57">
      <!-- −0.5 -->
      <g transform="translate(414.138509 602.363187)scale(0.14 -0.14)">
       <use xlink:href="#DejaVuSans-2212"/>
       <use x="83.789062" xlink:href="#DejaVuSans-30"/>
       <use x="147.412109" xlink:href="#DejaVuSans-2e"/>
       <use x="179.199219" xlink:href="#DejaVuSans-35"/>
      </g>
     </g>
    </g>
    <g id="xtick_28">
     <g id="line2d_53">
      <g>
       <use style="stroke:#000000;stroke-width:0.8;" x="459.72358" xlink:href="#ma109a7a49a" y="584.725375"/>
      </g>
     </g>
     <g id="text_58">
      <!-- 0.0 -->
      <g transform="translate(448.591392 602.363187)scale(0.14 -0.14)">
       <use xlink:href="#DejaVuSans-30"/>
       <use x="63.623047" xlink:href="#DejaVuSans-2e"/>
       <use x="95.410156" xlink:href="#DejaVuSans-30"/>
      </g>
     </g>
    </g>
    <g id="xtick_29">
     <g id="line2d_54">
      <g>
       <use style="stroke:#000000;stroke-width:0.8;" x="488.310682" xlink:href="#ma109a7a49a" y="584.725375"/>
      </g>
     </g>
     <g id="text_59">
      <!-- 0.5 -->
      <g transform="translate(477.178494 602.363187)scale(0.14 -0.14)">
       <use xlink:href="#DejaVuSans-30"/>
       <use x="63.623047" xlink:href="#DejaVuSans-2e"/>
       <use x="95.410156" xlink:href="#DejaVuSans-35"/>
      </g>
     </g>
    </g>
    <g id="xtick_30">
     <g id="line2d_55">
      <g>
       <use style="stroke:#000000;stroke-width:0.8;" x="516.897784" xlink:href="#ma109a7a49a" y="584.725375"/>
      </g>
     </g>
     <g id="text_60">
      <!-- 1.0 -->
      <g transform="translate(505.765597 602.363187)scale(0.14 -0.14)">
       <use xlink:href="#DejaVuSans-31"/>
       <use x="63.623047" xlink:href="#DejaVuSans-2e"/>
       <use x="95.410156" xlink:href="#DejaVuSans-30"/>
      </g>
     </g>
    </g>
    <g id="text_61">
     <!-- Speed in preferred direction -->
     <g transform="translate(360.992955 619.912562)scale(0.14 -0.14)">
      <use xlink:href="#DejaVuSans-53"/>
      <use x="63.476562" xlink:href="#DejaVuSans-70"/>
      <use x="126.953125" xlink:href="#DejaVuSans-65"/>
      <use x="188.476562" xlink:href="#DejaVuSans-65"/>
      <use x="250" xlink:href="#DejaVuSans-64"/>
      <use x="313.476562" xlink:href="#DejaVuSans-20"/>
      <use x="345.263672" xlink:href="#DejaVuSans-69"/>
      <use x="373.046875" xlink:href="#DejaVuSans-6e"/>
      <use x="436.425781" xlink:href="#DejaVuSans-20"/>
      <use x="468.212891" xlink:href="#DejaVuSans-70"/>
      <use x="531.689453" xlink:href="#DejaVuSans-72"/>
      <use x="572.771484" xlink:href="#DejaVuSans-65"/>
      <use x="634.294922" xlink:href="#DejaVuSans-66"/>
      <use x="669.5" xlink:href="#DejaVuSans-65"/>
      <use x="731.023438" xlink:href="#DejaVuSans-72"/>
      <use x="772.121094" xlink:href="#DejaVuSans-72"/>
      <use x="813.203125" xlink:href="#DejaVuSans-65"/>
      <use x="874.726562" xlink:href="#DejaVuSans-64"/>
      <use x="938.203125" xlink:href="#DejaVuSans-20"/>
      <use x="969.990234" xlink:href="#DejaVuSans-64"/>
      <use x="1033.466797" xlink:href="#DejaVuSans-69"/>
      <use x="1061.25" xlink:href="#DejaVuSans-72"/>
      <use x="1102.332031" xlink:href="#DejaVuSans-65"/>
      <use x="1163.855469" xlink:href="#DejaVuSans-63"/>
      <use x="1218.835938" xlink:href="#DejaVuSans-74"/>
      <use x="1258.044922" xlink:href="#DejaVuSans-69"/>
      <use x="1285.828125" xlink:href="#DejaVuSans-6f"/>
      <use x="1347.009766" xlink:href="#DejaVuSans-6e"/>
     </g>
    </g>
   </g>
   <g id="matplotlib.axis_12">
    <g id="ytick_16">
     <g id="line2d_56">
      <g>
       <use style="stroke:#000000;stroke-width:0.8;" x="402.549375" xlink:href="#m2327e9c5cf" y="578.505375"/>
      </g>
     </g>
     <g id="text_62">
      <!-- 0.0 -->
      <g transform="translate(373.285 583.824281)scale(0.14 -0.14)">
       <use xlink:href="#DejaVuSans-30"/>
       <use x="63.623047" xlink:href="#DejaVuSans-2e"/>
       <use x="95.410156" xlink:href="#DejaVuSans-30"/>
      </g>
     </g>
    </g>
    <g id="ytick_17">
     <g id="line2d_57">
      <g>
       <use style="stroke:#000000;stroke-width:0.8;" x="402.549375" xlink:href="#m2327e9c5cf" y="516.305375"/>
      </g>
     </g>
     <g id="text_63">
      <!-- 0.5 -->
      <g transform="translate(373.285 521.624281)scale(0.14 -0.14)">
       <use xlink:href="#DejaVuSans-30"/>
       <use x="63.623047" xlink:href="#DejaVuSans-2e"/>
       <use x="95.410156" xlink:href="#DejaVuSans-35"/>
      </g>
     </g>
    </g>
    <g id="ytick_18">
     <g id="line2d_58">
      <g>
       <use style="stroke:#000000;stroke-width:0.8;" x="402.549375" xlink:href="#m2327e9c5cf" y="454.105375"/>
      </g>
     </g>
     <g id="text_64">
      <!-- 1.0 -->
      <g transform="translate(373.285 459.424281)scale(0.14 -0.14)">
       <use xlink:href="#DejaVuSans-31"/>
       <use x="63.623047" xlink:href="#DejaVuSans-2e"/>
       <use x="95.410156" xlink:href="#DejaVuSans-30"/>
      </g>
     </g>
    </g>
    <g id="text_65">
     <!-- Output firing rate -->
     <g transform="translate(366.373437 577.400062)rotate(-90)scale(0.14 -0.14)">
      <use xlink:href="#DejaVuSans-4f"/>
      <use x="78.710938" xlink:href="#DejaVuSans-75"/>
      <use x="142.089844" xlink:href="#DejaVuSans-74"/>
      <use x="181.298828" xlink:href="#DejaVuSans-70"/>
      <use x="244.775391" xlink:href="#DejaVuSans-75"/>
      <use x="308.154297" xlink:href="#DejaVuSans-74"/>
      <use x="347.363281" xlink:href="#DejaVuSans-20"/>
      <use x="379.150391" xlink:href="#DejaVuSans-66"/>
      <use x="414.355469" xlink:href="#DejaVuSans-69"/>
      <use x="442.138672" xlink:href="#DejaVuSans-72"/>
      <use x="483.251953" xlink:href="#DejaVuSans-69"/>
      <use x="511.035156" xlink:href="#DejaVuSans-6e"/>
      <use x="574.414062" xlink:href="#DejaVuSans-67"/>
      <use x="637.890625" xlink:href="#DejaVuSans-20"/>
      <use x="669.677734" xlink:href="#DejaVuSans-72"/>
      <use x="710.791016" xlink:href="#DejaVuSans-61"/>
      <use x="772.070312" xlink:href="#DejaVuSans-74"/>
      <use x="811.279297" xlink:href="#DejaVuSans-65"/>
     </g>
    </g>
   </g>
   <g id="line2d_59">
    <path clip-path="url(#pcf9a92e294)" d="M 402.549375 578.505375 
L 403.704409 578.505375 
L 404.859444 578.505375 
L 406.014478 578.505375 
L 407.169513 578.505375 
L 408.324547 578.505375 
L 409.479582 578.505375 
L 410.634616 578.505375 
L 411.78965 578.505375 
L 412.944685 578.505375 
L 414.099719 578.505375 
L 415.254754 578.505375 
L 416.409788 578.505375 
L 417.564823 578.505375 
L 418.719857 578.505375 
L 419.874892 578.505375 
L 421.029926 578.505375 
L 422.18496 578.505375 
L 423.339995 578.505375 
L 424.495029 578.505375 
L 425.650064 578.505375 
L 426.805098 572.755414 
L 427.960133 578.505375 
L 429.115167 578.505375 
L 430.270201 561.455145 
L 431.425236 578.505375 
L 432.58027 578.505375 
L 433.735305 578.505375 
L 434.890339 578.505375 
L 436.045374 578.505375 
L 437.200408 578.505375 
L 438.355442 578.505375 
L 439.510477 578.505375 
L 440.665511 561.786518 
L 441.820546 578.505375 
L 442.97558 578.505375 
L 444.130615 524.398665 
L 445.285649 530.630074 
L 446.440684 460.296337 
L 447.595718 578.505375 
L 448.750752 578.505375 
L 449.905787 578.505375 
L 451.060821 505.192785 
L 452.215856 578.505375 
L 453.37089 525.990971 
L 454.525925 494.159403 
L 455.680959 578.505375 
L 456.835993 578.505375 
L 457.991028 562.891679 
L 459.146062 520.179536 
L 460.301097 578.505375 
L 461.456131 578.505375 
L 462.611166 535.342521 
L 463.7662 578.505375 
L 464.921235 578.505375 
L 466.076269 578.505375 
L 467.231303 574.168185 
L 468.386338 578.505375 
L 469.541372 578.505375 
L 470.696407 498.240133 
L 471.851441 523.03497 
L 473.006476 578.505375 
L 474.16151 564.152893 
L 475.316544 569.532048 
L 476.471579 542.303871 
L 477.626613 530.206094 
L 478.781648 531.426781 
L 479.936682 454.105375 
L 481.091717 578.505375 
L 482.246751 514.694363 
L 483.401785 547.576459 
L 484.55682 467.087262 
L 485.711854 567.581477 
L 486.866889 499.794436 
L 488.021923 465.82575 
L 489.176958 570.019576 
L 490.331992 508.633279 
L 491.487027 508.766942 
L 492.642061 544.402565 
L 493.797095 520.414221 
L 494.95213 461.446 
L 496.107164 510.461391 
L 497.262199 504.046301 
L 498.417233 454.105375 
L 499.572268 500.824379 
L 500.727302 554.634881 
L 501.882336 476.058193 
L 503.037371 513.077797 
L 504.192405 496.665588 
L 505.34744 523.956487 
L 506.502474 454.105375 
L 507.657509 454.105375 
L 508.812543 454.105375 
L 509.967577 454.105375 
L 511.122612 473.706671 
L 512.277646 454.105375 
L 513.432681 463.562716 
L 514.587715 454.105375 
L 515.74275 454.105375 
L 516.897784 467.362745 
" style="fill:none;stroke:#654718;stroke-linecap:square;stroke-width:1.5;"/>
   </g>
   <g id="line2d_60">
    <path clip-path="url(#pcf9a92e294)" d="M 459.72358 584.725375 
L 459.72358 447.885375 
" style="fill:none;stroke:#808080;stroke-dasharray:5.55,2.4;stroke-dashoffset:0;stroke-width:1.5;"/>
   </g>
   <g id="patch_28">
    <path d="M 402.549375 584.725375 
L 402.549375 447.885375 
" style="fill:none;stroke:#000000;stroke-linecap:square;stroke-linejoin:miter;stroke-width:0.8;"/>
   </g>
   <g id="patch_29">
    <path d="M 516.897784 584.725375 
L 516.897784 447.885375 
" style="fill:none;stroke:#000000;stroke-linecap:square;stroke-linejoin:miter;stroke-width:0.8;"/>
   </g>
   <g id="patch_30">
    <path d="M 402.549375 584.725375 
L 516.897784 584.725375 
" style="fill:none;stroke:#000000;stroke-linecap:square;stroke-linejoin:miter;stroke-width:0.8;"/>
   </g>
   <g id="patch_31">
    <path d="M 402.549375 447.885375 
L 516.897784 447.885375 
" style="fill:none;stroke:#000000;stroke-linecap:square;stroke-linejoin:miter;stroke-width:0.8;"/>
   </g>
   <g id="text_66">
    <!-- TN2 -->
    <g transform="translate(442.964267 441.885375)scale(0.168 -0.168)">
     <use xlink:href="#DejaVuSans-54"/>
     <use x="61.083984" xlink:href="#DejaVuSans-4e"/>
     <use x="135.888672" xlink:href="#DejaVuSans-32"/>
    </g>
   </g>
  </g>
  <g id="axes_7">
   <g id="text_67">
    <!-- Noise: $\sigma$=0 -->
    <defs>
     <path d="M 44.28125 53.078125 
L 44.28125 44.578125 
Q 40.484375 46.53125 36.375 47.5 
Q 32.28125 48.484375 27.875 48.484375 
Q 21.1875 48.484375 17.84375 46.4375 
Q 14.5 44.390625 14.5 40.28125 
Q 14.5 37.15625 16.890625 35.375 
Q 19.28125 33.59375 26.515625 31.984375 
L 29.59375 31.296875 
Q 39.15625 29.25 43.1875 25.515625 
Q 47.21875 21.78125 47.21875 15.09375 
Q 47.21875 7.46875 41.1875 3.015625 
Q 35.15625 -1.421875 24.609375 -1.421875 
Q 20.21875 -1.421875 15.453125 -0.5625 
Q 10.6875 0.296875 5.421875 2 
L 5.421875 11.28125 
Q 10.40625 8.6875 15.234375 7.390625 
Q 20.0625 6.109375 24.8125 6.109375 
Q 31.15625 6.109375 34.5625 8.28125 
Q 37.984375 10.453125 37.984375 14.40625 
Q 37.984375 18.0625 35.515625 20.015625 
Q 33.0625 21.96875 24.703125 23.78125 
L 21.578125 24.515625 
Q 13.234375 26.265625 9.515625 29.90625 
Q 5.8125 33.546875 5.8125 39.890625 
Q 5.8125 47.609375 11.28125 51.796875 
Q 16.75 56 26.8125 56 
Q 31.78125 56 36.171875 55.265625 
Q 40.578125 54.546875 44.28125 53.078125 
z
" id="DejaVuSans-73"/>
     <path d="M 11.71875 12.40625 
L 22.015625 12.40625 
L 22.015625 0 
L 11.71875 0 
z
M 11.71875 51.703125 
L 22.015625 51.703125 
L 22.015625 39.3125 
L 11.71875 39.3125 
z
" id="DejaVuSans-3a"/>
     <path d="M 34.671875 47.5625 
Q 27.25 47.5625 22.21875 42.1875 
Q 16.890625 36.578125 15.140625 27.296875 
Q 13.1875 17.484375 16.3125 11.8125 
Q 19.390625 6.203125 26.65625 6.203125 
Q 33.84375 6.203125 39.109375 11.859375 
Q 44.4375 17.53125 46.34375 27.296875 
Q 48.046875 36.234375 45.015625 42.1875 
Q 42.1875 47.5625 34.671875 47.5625 
z
M 36.078125 54.734375 
L 65.921875 54.6875 
L 64.15625 45.703125 
L 54.109375 45.703125 
Q 57.90625 38.09375 55.859375 27.296875 
Q 53.21875 13.875 45.0625 6.25 
Q 36.859375 -1.421875 25.140625 -1.421875 
Q 13.375 -1.421875 8.203125 6.25 
Q 3.03125 13.875 5.671875 27.296875 
Q 8.25 40.765625 16.40625 48.390625 
Q 23.1875 54.734375 36.078125 54.734375 
z
" id="DejaVuSans-Oblique-3c3"/>
     <path d="M 10.59375 45.40625 
L 73.1875 45.40625 
L 73.1875 37.203125 
L 10.59375 37.203125 
z
M 10.59375 25.484375 
L 73.1875 25.484375 
L 73.1875 17.1875 
L 10.59375 17.1875 
z
" id="DejaVuSans-3d"/>
    </defs>
    <g transform="translate(36.464375 104.893375)scale(0.16 -0.16)">
     <use transform="translate(0 0.015625)" xlink:href="#DejaVuSans-4e"/>
     <use transform="translate(74.804688 0.015625)" xlink:href="#DejaVuSans-6f"/>
     <use transform="translate(135.986328 0.015625)" xlink:href="#DejaVuSans-69"/>
     <use transform="translate(163.769531 0.015625)" xlink:href="#DejaVuSans-73"/>
     <use transform="translate(215.869141 0.015625)" xlink:href="#DejaVuSans-65"/>
     <use transform="translate(277.392578 0.015625)" xlink:href="#DejaVuSans-3a"/>
     <use transform="translate(311.083984 0.015625)" xlink:href="#DejaVuSans-20"/>
     <use transform="translate(342.871094 0.015625)" xlink:href="#DejaVuSans-Oblique-3c3"/>
     <use transform="translate(406.25 0.015625)" xlink:href="#DejaVuSans-3d"/>
     <use transform="translate(490.039062 0.015625)" xlink:href="#DejaVuSans-30"/>
    </g>
   </g>
   <g id="text_68">
    <!-- Noise: $\sigma$=0.1 -->
    <g transform="translate(36.464375 314.845375)scale(0.16 -0.16)">
     <use transform="translate(0 0.015625)" xlink:href="#DejaVuSans-4e"/>
     <use transform="translate(74.804688 0.015625)" xlink:href="#DejaVuSans-6f"/>
     <use transform="translate(135.986328 0.015625)" xlink:href="#DejaVuSans-69"/>
     <use transform="translate(163.769531 0.015625)" xlink:href="#DejaVuSans-73"/>
     <use transform="translate(215.869141 0.015625)" xlink:href="#DejaVuSans-65"/>
     <use transform="translate(277.392578 0.015625)" xlink:href="#DejaVuSans-3a"/>
     <use transform="translate(311.083984 0.015625)" xlink:href="#DejaVuSans-20"/>
     <use transform="translate(342.871094 0.015625)" xlink:href="#DejaVuSans-Oblique-3c3"/>
     <use transform="translate(406.25 0.015625)" xlink:href="#DejaVuSans-3d"/>
     <use transform="translate(490.039062 0.015625)" xlink:href="#DejaVuSans-30"/>
     <use transform="translate(553.662109 0.015625)" xlink:href="#DejaVuSans-2e"/>
     <use transform="translate(585.449219 0.015625)" xlink:href="#DejaVuSans-31"/>
    </g>
   </g>
   <g id="text_69">
    <!-- Noise: $\sigma$=0.4 -->
    <defs>
     <path d="M 37.796875 64.3125 
L 12.890625 25.390625 
L 37.796875 25.390625 
z
M 35.203125 72.90625 
L 47.609375 72.90625 
L 47.609375 25.390625 
L 58.015625 25.390625 
L 58.015625 17.1875 
L 47.609375 17.1875 
L 47.609375 0 
L 37.796875 0 
L 37.796875 17.1875 
L 4.890625 17.1875 
L 4.890625 26.703125 
z
" id="DejaVuSans-34"/>
    </defs>
    <g transform="translate(36.464375 524.797375)scale(0.16 -0.16)">
     <use transform="translate(0 0.015625)" xlink:href="#DejaVuSans-4e"/>
     <use transform="translate(74.804688 0.015625)" xlink:href="#DejaVuSans-6f"/>
     <use transform="translate(135.986328 0.015625)" xlink:href="#DejaVuSans-69"/>
     <use transform="translate(163.769531 0.015625)" xlink:href="#DejaVuSans-73"/>
     <use transform="translate(215.869141 0.015625)" xlink:href="#DejaVuSans-65"/>
     <use transform="translate(277.392578 0.015625)" xlink:href="#DejaVuSans-3a"/>
     <use transform="translate(311.083984 0.015625)" xlink:href="#DejaVuSans-20"/>
     <use transform="translate(342.871094 0.015625)" xlink:href="#DejaVuSans-Oblique-3c3"/>
     <use transform="translate(406.25 0.015625)" xlink:href="#DejaVuSans-3d"/>
     <use transform="translate(490.039062 0.015625)" xlink:href="#DejaVuSans-30"/>
     <use transform="translate(553.662109 0.015625)" xlink:href="#DejaVuSans-2e"/>
     <use transform="translate(585.449219 0.015625)" xlink:href="#DejaVuSans-34"/>
    </g>
   </g>
  </g>
 </g>
 <defs>
  <clipPath id="p463bb1bcd8">
   <rect height="136.84" width="114.348409" x="194.109375" y="25.965375"/>
  </clipPath>
  <clipPath id="p5d5c776e05">
   <rect height="136.84" width="114.348409" x="402.549375" y="25.965375"/>
  </clipPath>
  <clipPath id="pc60006c988">
   <rect height="136.84" width="114.348409" x="194.109375" y="236.925375"/>
  </clipPath>
  <clipPath id="p928bf33fce">
   <rect height="136.84" width="114.348409" x="402.549375" y="236.925375"/>
  </clipPath>
  <clipPath id="pbacdf01eda">
   <rect height="136.84" width="114.348409" x="194.109375" y="447.885375"/>
  </clipPath>
  <clipPath id="pcf9a92e294">
   <rect height="136.84" width="114.348409" x="402.549375" y="447.885375"/>
  </clipPath>
 </defs>
</svg>
